<?xml version="1.0" encoding="UTF-8"?>
<!DOCTYPE svg PUBLIC "-//W3C//DTD SVG 1.1//EN" "http://www.w3.org/Graphics/SVG/1.1/DTD/svg11.dtd">
<!-- Creator: CorelDRAW X7 -->
<svg xmlns="http://www.w3.org/2000/svg" xml:space="preserve" width="3.93701in" height="3.93701in" version="1.1" style="shape-rendering:geometricPrecision; text-rendering:geometricPrecision; image-rendering:optimizeQuality; fill-rule:evenodd; clip-rule:evenodd"
viewBox="0 0 3734 3734"
 xmlns:xlink="http://www.w3.org/1999/xlink">
 <defs>
  <style type="text/css">
   <![CDATA[
    .str0 {stroke:#3E4095;stroke-width:84.7154}
    .fil0 {fill:#FEFEFE}
    .fil4 {fill:#A8CF45}
    .fil2 {fill:#3E4095}
    .fil5 {fill:#FEFEFE;fill-rule:nonzero}
    .fil3 {fill:#FEFEFE;fill-rule:nonzero}
    .fil1 {fill:#3E4095;fill-rule:nonzero}
   ]]>
  </style>
    <clipPath id="id0">
     <path d="M989 986l1759 0 0 1761 -1759 0 0 -1761z"/>
    </clipPath>
 </defs>
 <g id="Layer_x0020_1">
  <metadata id="CorelCorpID_0Corel-Layer"/>
  <path class="fil0 str0" d="M1867 571c716,0 1296,580 1296,1296 0,716 -580,1296 -1296,1296 -716,0 -1296,-580 -1296,-1296 0,-716 580,-1296 1296,-1296z"/>
  <path class="fil0" d="M1867 42c1008,0 1825,817 1825,1825 0,1008 -817,1825 -1825,1825 -1008,0 -1825,-817 -1825,-1825 0,-1008 817,-1825 1825,-1825z"/>
  <path class="fil1" d="M1867 0c516,0 982,209 1320,547 338,338 547,805 547,1320 0,516 -209,983 -547,1320 -338,338 -804,547 -1320,547 -515,0 -982,-209 -1320,-547 -338,-338 -547,-804 -547,-1320 0,-515 209,-982 547,-1320 338,-338 805,-547 1320,-547zm1260 607c-322,-323 -768,-522 -1260,-522 -492,0 -938,199 -1260,522 -323,322 -522,768 -522,1260 0,492 199,938 522,1260 322,323 768,523 1260,523 492,0 938,-200 1260,-523 323,-322 523,-768 523,-1260 0,-492 -200,-938 -523,-1260z"/>
  <path class="fil2" d="M1867 541c159,0 312,28 453,79 -22,4 -43,11 -66,19 -53,22 -94,47 -141,81 -43,32 -79,64 -117,102 -56,55 -103,114 -149,178 0,0 -21,29 -7,25 86,-94 172,-173 275,-247 9,-6 18,-12 27,-18 44,-28 83,-50 132,-67 37,-13 68,-20 107,-15 32,5 52,14 75,37 11,11 18,21 26,35 13,21 21,41 28,65 28,98 31,195 34,296 1,12 -10,202 17,157 33,-66 37,-176 41,-247 2,-82 -2,-148 -26,-226 -8,-24 -16,-46 -27,-65 329,197 564,532 627,926 -2,-4 -5,-9 -8,-13 -25,-35 -52,-59 -87,-84 -96,-63 -192,-96 -302,-125 -6,-2 -13,-4 -19,-5 -317,-73 -613,-76 -937,-52 -235,23 -444,57 -671,123 -92,28 -176,58 -264,98 -106,49 -195,99 -280,181 -28,28 -49,54 -67,88 0,-406 182,-768 469,-1011 -11,25 -17,52 -21,83 -7,66 -1,119 10,184 19,105 59,207 102,304 6,13 24,49 24,31 -14,-38 -27,-76 -39,-115l0 0c-36,-117 -59,-237 -52,-360 1,-12 3,-25 5,-37 8,-49 21,-87 55,-124 14,-14 26,-23 44,-31 19,-9 35,-13 56,-15 53,-4 97,5 147,22 34,12 63,26 95,42 32,16 61,34 92,53 118,78 213,161 317,256 8,8 161,171 142,115 -31,-79 -126,-175 -183,-234 -78,-78 -147,-136 -239,-195 -68,-43 -128,-73 -204,-98 -50,-15 -91,-23 -143,-23 -2,0 -5,0 -7,0 194,-110 417,-173 656,-173zm1325 1281c1,15 1,30 1,45 0,402 -178,762 -460,1005 10,-30 16,-58 20,-93 11,-117 -7,-219 -35,-333 -14,-56 -30,-108 -49,-163 -77,-219 -205,-453 -344,-638 -16,-21 -31,-41 -47,-61 -11,-14 -123,-159 -108,-95 14,51 34,81 62,127 40,66 79,131 117,198 117,215 220,418 292,653 12,44 22,85 30,129 10,61 15,115 11,178 -3,36 -8,67 -23,101 -12,26 -25,44 -48,61 -29,20 -55,26 -90,28 -47,0 -85,-9 -130,-23 -1,-1 -5,-2 -7,-3 -106,-37 -216,-101 -308,-166 -13,-9 -49,-34 -40,-16 105,95 208,172 338,231 50,20 93,32 147,34 -193,110 -416,172 -654,172 -155,0 -304,-26 -442,-75 33,-6 62,-16 96,-30 107,-49 187,-116 271,-197 42,-40 79,-80 117,-124 151,-176 290,-404 380,-617 11,-24 20,-47 30,-71 6,-17 76,-186 28,-141 -37,37 -53,70 -79,117 -37,68 -74,134 -113,200 -127,210 -252,400 -420,580 -31,32 -62,61 -96,90 -48,39 -93,71 -148,99 -34,16 -63,26 -100,30 -29,3 -50,1 -77,-11 -32,-15 -50,-34 -68,-63 -25,-41 -36,-78 -45,-124 -1,-1 -2,-7 -2,-8 -21,-110 -20,-238 -10,-350 1,-16 5,-59 -6,-43 -30,139 -45,266 -31,409 8,53 19,97 44,145l2 3c-325,-190 -562,-515 -634,-898 9,11 19,21 30,32 58,51 114,73 184,102 46,17 94,28 142,40 168,38 408,48 285,20 -245,-42 -281,-56 -404,-107 -35,-15 -66,-31 -99,-51 -24,-16 -44,-30 -64,-50 -18,-18 -31,-33 -43,-55 -10,-19 -15,-34 -17,-56 -2,-29 4,-51 16,-78 17,-33 37,-57 63,-83 78,-74 163,-121 260,-167 294,-130 579,-186 899,-222 3,0 10,-1 13,-1 324,-27 621,-30 939,42 105,26 198,55 290,113 21,14 39,27 57,45 8,9 16,17 23,27 18,26 28,47 33,78 3,37 -5,64 -21,97 -22,41 -49,71 -83,102 -81,71 -161,118 -257,164 -12,5 -106,47 -70,40 128,-48 235,-99 344,-184 38,-33 67,-63 93,-108 6,-11 11,-21 15,-32z"/>
  <path class="fil3" d="M2574 1142c0,-1 0,-1 0,-1l0 1z"/>
  <circle class="fil2" cx="542" cy="2685" r="50"/>
  <circle class="fil2" cx="3194" cy="2685" r="50"/>
  <g id="_548516515760">
   <g style="clip-path:url(#id0)">
    <image x="989" y="986" width="1759" height="1762" xlink:href="logo_PMF_Images\logo_PMF_ImgID1.png"/>
   </g>
  </g>
  <ellipse class="fil2" transform="matrix(7.20574E-013 6.04177 -6.54261 3.84788E-014 1868.23 1866.63)" rx="127" ry="117"/>
  <g>
   <path class="fil4" d="M2265 2414c3,6 3,7 1,15 0,4 0,9 -4,10l-3 0c0,0 0,0 -1,0 -4,13 -9,18 -17,28l-12 16c-4,5 -11,16 -17,19 -4,3 -7,3 -12,6 -7,3 -8,3 -14,0 0,-3 1,-4 1,-6 1,-6 -2,-5 2,-10l3 -3c0,0 0,-1 0,-1l3 -2c5,-6 5,-4 9,-9 5,-7 1,-4 1,-14 1,-1 3,-2 6,-7 3,-5 7,-6 15,-8 6,-3 3,-2 7,0 -2,-8 2,-3 8,-9 2,-3 3,-1 5,-4l3 -2c0,0 0,-1 0,-1 2,-2 0,2 1,-2 0,0 0,-1 0,-1 0,-1 0,-1 0,-1l4 -1c7,-4 4,-6 11,-13zm-629 -937l0 0zm0 0l0 0zm640 -250c0,0 0,0 0,0 0,0 0,1 -1,1 0,-1 0,-1 0,-1l1 0zm-1 0c0,0 0,0 0,0l0 0c0,0 0,0 1,0l0 0 -1 0zm-366 183c5,2 7,5 8,-2 -2,0 -2,0 -4,0 0,0 -1,0 -4,2zm725 457c0,88 -15,173 -43,252 1,-2 1,-3 1,-5 0,-4 1,-9 3,-12 0,5 -2,7 -2,11 2,-2 3,-8 4,-13l-1 1c-2,1 2,1 -2,0 2,-8 5,-15 4,-23 -2,4 -6,11 -7,14 0,-6 3,-18 4,-28 0,-8 -2,-6 -3,-12 -1,-4 0,-11 0,-16 -4,-2 -2,2 -3,-2 -2,11 0,9 -9,18 -1,-2 -1,1 -1,-4 -2,5 -3,4 -5,8 -2,5 -2,10 -5,15 -4,6 -4,4 -8,12 -2,4 -2,5 -5,8 -3,5 -6,14 -9,18 -4,4 -10,9 -12,15 0,4 -1,8 -1,12 -1,12 -4,12 -6,21 -3,13 -3,8 -8,19 -1,2 -9,14 -11,15 -4,-8 -1,-19 -5,-31 -1,-4 0,-11 -1,-17 0,-4 -2,-11 -3,-15 -3,-16 0,-40 -1,-50 0,-5 2,-11 1,-14 -4,4 -2,7 -4,12 -2,3 -5,5 -7,9 -7,-2 -13,-9 -14,-16 5,2 10,-4 11,-9 -2,4 -12,6 -13,-1 -1,-5 0,-1 0,-2 -2,-2 -2,0 -4,-1 -5,-1 -4,-2 -5,-6 -1,-6 0,-2 -2,-4 -3,-3 -2,-4 -4,-8 -7,1 -12,4 -19,5 -8,0 -16,6 -24,3 -7,-3 -23,-2 -31,-2l-4 -15c-8,-2 -13,3 -17,7 -4,-1 -2,-1 -8,-2 -19,-4 -7,-8 -20,-11 -5,-1 -5,1 -7,-4l-4 -7c-3,-5 -4,-11 -7,-16 -4,0 -3,1 -5,1l-5 -2c-3,5 0,2 -3,4 -2,-4 -1,-3 -6,-4 1,4 1,4 3,8 -3,3 -1,1 -5,3 5,6 7,17 9,19 1,2 1,1 2,1 3,2 10,12 11,14 1,7 -3,3 2,9 2,4 2,6 5,9 2,-5 0,-9 4,-14 2,3 1,4 2,8l-1 11c4,8 8,4 13,3 3,0 5,1 9,0 2,-4 -2,4 0,-1l1 -1c0,0 0,-1 0,-1 1,2 -1,1 2,2l6 -6c2,-5 1,-4 4,-8 3,-4 3,-3 6,-7 3,-3 2,-4 4,-7 1,5 0,14 2,20 5,11 8,9 18,9 4,5 4,7 10,13 -3,8 -3,7 -7,13 -5,7 2,8 -4,12 1,-4 2,-2 2,-6l-2 1c-6,4 -10,7 -7,19 -15,6 -7,1 -14,13 -13,2 -7,2 -11,12 -8,2 -4,0 -12,4 -6,3 -9,1 -12,6 -7,10 2,6 -19,16 -3,2 -8,3 -11,5 -5,3 -3,6 -11,8 -5,1 -1,-1 -5,2 -5,6 -12,6 -21,6 -4,8 -11,10 -20,11 0,-1 0,-1 0,-1 -2,3 -5,-19 -5,-19 0,-6 -2,-3 -2,-9 -1,-5 1,-5 0,-10 -1,-3 -3,-6 -4,-8l-5 -8c-4,-3 -3,-3 -5,-7 -2,-4 -4,-12 -8,-15 -2,-2 -1,-2 -3,-3 -4,-2 -1,1 -5,-2 -12,-10 -6,-20 -8,-26l-3 -9c-4,-11 -8,-8 -13,-10 -4,-10 0,-7 -8,-18 -2,-3 -2,-4 -4,-7 -2,-6 -10,-16 -15,-20l-3 -2 1 -10c-4,5 -3,12 -5,17 -4,-1 -4,-2 -7,-5 -1,-1 -1,-2 -2,-3 -2,-2 -2,-2 -3,-3 -2,-3 0,-1 -2,-3l-8 -11c0,8 5,15 9,18 6,5 3,3 5,9 2,4 3,2 4,9 2,7 5,13 9,19l11 16c-3,3 -3,10 0,13 7,7 11,0 15,18 3,17 0,24 7,29 5,3 9,6 12,12 2,7 2,14 5,20l1 2c0,0 0,1 0,1 2,5 0,0 1,3l2 -4c4,2 0,3 6,5l2 0c5,2 7,7 11,10 2,2 1,1 3,2l8 9c9,8 -2,8 5,17 12,16 12,2 22,0 4,0 5,1 8,0 4,-2 4,-4 8,-4 10,-2 18,-4 27,-8 2,-1 8,-7 8,-3l-3 15c-6,17 -8,15 -14,28l-8 13c-4,7 -11,17 -17,24 -7,7 -14,15 -22,20 -14,10 -11,7 -23,19 -3,4 -7,6 -11,10 -10,12 -10,12 -21,20l-19 24c-4,8 -5,10 2,14 -1,1 -1,1 -1,2 -2,3 0,-1 -2,3l-1 7c-1,4 1,8 1,12l7 4c-1,5 -2,3 -4,14l-3 15c0,3 -3,5 -5,8 -3,5 -7,7 -13,11 -8,4 -18,8 -25,13l-16 11c-2,2 -5,3 -7,3l0 15c1,3 -1,9 -4,12 -2,4 -9,6 -14,7 -7,2 -9,4 -14,7l0 1c1,3 1,0 1,2 0,5 -11,14 -16,16 -3,2 -5,4 -8,5 -9,8 -20,14 -33,20l-30 8c-4,0 -8,0 -12,1 -7,1 -29,6 -33,5 -5,0 -6,-2 -10,-1 0,0 0,-3 -3,-6 3,-2 4,1 3,-4 0,-2 -2,-3 -4,-5 -3,-4 -2,-7 -7,-11 -4,-3 -8,-3 -10,-7l-7 -21c-1,-3 1,-5 0,-7 0,-3 -2,-4 -4,-5 -7,-10 -9,-19 -21,-25 2,-20 2,-12 7,-26 2,-7 4,-8 8,-13l3 -2c3,-2 3,-1 5,-4 8,-9 -4,-17 -5,-24 0,-8 3,2 0,-13 -2,-10 -3,-4 -6,-12 2,-4 0,1 -2,-4 -2,-3 -2,-5 -3,-8 -2,-4 -7,-7 -10,-10 -5,-3 -9,-5 -12,-9l-8 -9c3,-1 -2,1 2,0l2 -1c0,0 1,0 1,0 -7,-3 -5,-1 -9,-8l5 -2 0 -8c3,1 2,2 5,1 -4,-3 0,0 -2,-5l-2 -5c4,-5 9,-13 6,-20 -2,-5 -1,-2 -1,-7 -8,-1 -4,3 -9,-5l-4 -1c-5,0 -10,1 -15,2 -30,4 -14,-6 -29,-17 -8,-6 -20,-5 -30,-4 -5,1 -4,3 -9,4 -3,1 -7,1 -10,2 -3,1 -4,3 -8,4 -4,1 -6,1 -10,2 -8,3 -11,1 -18,-2 -5,-2 -10,0 -17,0 -4,0 -8,-1 -12,0 -18,1 -8,12 -36,-2 -5,-3 -3,-1 -7,-5 -4,-3 -4,-2 -7,-5 -9,-6 -5,-5 -19,-12l-4 -2c-16,-16 -5,-19 -19,-30l-9 -4c-1,-4 0,-6 -4,-9 -5,-2 -4,-1 -6,-6l4 -2c-6,0 -10,1 -14,-3 0,0 0,0 0,-1 0,0 -1,-1 -1,-1 0,0 -2,-1 -2,-1 0,-2 1,-3 3,-4 -5,-1 -6,1 -6,-5 -1,-9 3,3 1,-7 0,-5 -6,-7 -9,-11 14,-18 6,-8 12,-29 4,-14 -3,-18 -2,-24 0,-4 0,-6 0,-11 -1,-1 0,-1 -2,-1l-6 -2c0,-3 1,-11 1,-13 2,-5 1,-1 3,-4 4,-5 5,-17 11,-22 7,-7 7,-7 11,-17 3,-11 3,-9 14,-14 0,-7 1,-5 5,-10 5,-6 3,-3 11,-5 5,-1 5,-4 9,-6 8,-5 3,-1 8,-8 7,-11 9,-3 6,-22 -2,-10 6,-8 6,-15l0 -7c0,-5 18,-12 24,-15 7,-4 11,-16 12,-26 8,-1 4,-3 9,2 6,8 7,4 16,4 6,1 5,0 9,-2 2,4 2,5 7,5 4,1 8,0 10,-2 6,-4 6,-8 17,-7 1,-6 5,-5 9,-7 11,-5 14,-3 25,-6 5,-1 10,-2 15,-2 6,1 6,7 17,0 2,-1 2,-1 4,-3 3,3 1,2 4,3 7,2 4,-2 9,-1 12,4 12,-1 17,-3 2,-1 9,-1 11,-1 1,3 2,5 3,8l8 -5c0,3 -1,5 -2,8l-2 3c-2,5 2,5 6,8 0,9 2,8 -3,13 -4,3 -15,10 -1,16 5,1 1,-1 4,0l5 3c3,1 6,3 8,4 5,2 13,1 19,1 8,1 4,2 8,3 3,1 8,1 10,2 2,5 2,15 10,16 5,1 5,-1 11,1 3,1 6,3 9,4 5,2 4,2 8,5 9,9 22,0 19,-9 -1,-4 -3,-6 -2,-11 1,-2 4,-7 6,-8 6,-5 22,-6 29,-2 5,5 -2,5 7,7 12,2 12,-4 19,6 25,0 21,3 32,5 4,1 3,0 6,1 6,2 8,6 14,1 4,-3 1,-3 8,-5 17,-5 12,-2 18,5 0,0 0,0 0,0l2 -4c5,4 3,1 8,0 4,0 6,1 11,0 5,-6 8,-8 9,-16 0,-7 6,-14 8,-24l1 -5c2,-5 1,-8 -1,-12 -2,-7 1,-1 0,-8 -1,-7 2,0 2,-10 -6,2 -3,3 -7,3 -7,1 -7,-5 -13,3 -3,5 -11,7 -17,6 -7,-1 -4,-9 -23,-10l-1 8c-20,2 -12,3 -18,-4 -5,-4 -8,-1 -9,-1 -1,0 -5,6 -3,-4 0,0 1,0 1,0l-7 1c0,-1 0,-1 0,-1l0 -2c-1,-5 -3,-1 -4,-6 0,-1 0,-2 0,-5 -4,-2 -5,-3 -9,-3l1 -8c3,3 0,2 4,3 1,-5 -1,-2 3,-7 -3,-2 -2,2 -4,-3 -1,-4 1,-1 2,-6l-9 1 0 -15 4 -2 -17 -5c-6,1 -3,4 -5,5 -2,-3 0,-1 -1,-4 0,0 0,-1 0,-1l-9 6c2,3 3,2 6,4l-5 -1c0,3 1,4 0,5 -2,-3 0,-2 -4,-3l-1 3c-2,-2 -5,-7 -7,-8 -7,7 2,14 6,20 -6,3 6,-2 -2,0 -3,1 -2,3 -4,6 4,1 7,3 10,5 6,3 5,3 5,11 -7,-1 -3,-3 -10,-1 2,4 3,4 5,8 -5,-1 -4,-1 -8,-3 2,5 3,5 5,11l-4 -2c-3,3 -2,2 -4,5 0,-3 0,-6 -4,-6 -2,0 -3,6 -4,-2 -1,-5 1,-3 -3,-7 -3,-3 -4,-1 -5,-7 8,-6 12,1 20,0 -3,-6 -14,-5 -20,-4 -1,-5 -2,-4 -4,-8l-9 -12c-1,-1 0,0 -1,-2 -4,-5 -2,-4 -8,-6 1,-7 -1,-14 1,-22 -12,-7 0,-2 -12,-12 -6,-5 -6,-4 -14,-6 -7,-2 -10,0 -3,-3 0,0 0,0 1,0 -3,-2 -4,-3 -6,-4 -7,-4 -3,0 -11,-7 -2,-1 -4,-2 -6,-3 2,-3 2,-1 3,-3 0,-1 -11,-13 -14,-15 -3,5 -1,4 -5,8 -5,-4 -2,-11 -4,-13 -5,-4 -11,3 -15,5 4,8 -2,11 4,17 2,2 6,3 8,4 6,5 7,10 10,15 2,2 4,5 6,7 6,8 8,6 19,7 0,4 -1,2 -2,7 11,3 18,7 27,13 4,3 2,5 1,10 -7,-3 -1,-6 -15,-9 -2,3 -4,7 -4,11 2,3 3,3 6,5 0,2 1,3 0,5 -1,4 -1,-1 -5,9 -1,3 -6,12 -10,8 -2,-5 -1,-3 1,-7 5,-10 2,-11 -1,-24 -4,-2 -3,1 -8,-3 -5,-3 -1,-4 -6,-7 -4,-2 -7,-3 -9,-8 -5,0 -7,1 -11,-1 -6,-4 -10,-8 -14,-13 -10,-10 -13,-10 -19,-23 -2,-6 -1,-5 -7,-7 -4,-1 -6,-3 -11,-3 -6,6 -4,6 -12,9 -5,2 -8,7 -11,11 -11,1 -8,-1 -15,-5 -6,-3 -2,0 -7,0 -2,0 -5,-2 -7,-3 -3,2 -8,6 -9,10l-1 19c-13,6 0,4 -13,7 -3,0 -5,1 -7,4 -3,5 -10,12 -13,18 -4,6 1,8 4,13l-6 7c-6,11 -1,8 -12,14 -4,2 -4,4 -6,7 -3,0 -2,0 -5,0 -4,1 2,2 -4,1l-13 -1c-5,0 -7,3 -10,4 -4,2 -7,6 -9,6 -9,-2 -8,-13 -14,-15 -5,-1 -9,1 -12,2 -4,0 -4,-3 -11,-1l2 -19c-1,-1 -3,0 -5,-1 1,-5 0,-3 4,-4 -2,-2 -4,0 -7,-1 1,-11 9,-17 10,-30 0,-5 -2,-15 -1,-18 0,-3 1,-5 0,-7l-3 -4c-1,-2 -1,0 -2,-3 5,-3 9,-3 12,-6 1,-1 0,-4 5,-4 5,-1 7,4 16,1 5,-1 1,-2 7,0 6,3 9,3 15,2 11,-2 24,7 29,1 7,-8 2,-20 5,-28 1,-1 1,-1 1,-2 5,2 3,2 6,6 -2,-6 -4,-6 -8,-9 2,-7 2,1 2,-5 0,-5 -8,-8 -12,-10 2,-8 -2,-4 3,-8 -7,0 -4,1 -6,-2 -2,-2 -2,-2 -6,-3 -4,-2 -9,-5 -14,-3 -3,-5 -1,-5 -3,-9 -4,-6 0,3 -1,-2l9 -3c3,0 6,-1 10,-3 1,3 2,3 3,5l13 -1c-1,-4 0,-6 -1,-9 -1,-4 -3,-2 -3,-7 11,-3 2,3 13,4 2,1 6,1 8,0 5,-2 1,-1 1,-2 0,-3 -2,2 0,-2 3,-5 9,-1 13,-6 4,-4 3,-9 6,-13 4,-3 4,-1 8,-4 5,-5 1,-4 9,-2 -1,-3 0,-2 0,-3l0 -5c2,-5 4,-3 7,-18l15 -6c6,-2 10,-4 14,3 0,-7 0,0 -4,-6 3,-2 6,-3 10,-3l1 2c1,3 -2,-2 0,1 2,3 -1,1 3,3 1,-3 1,-1 0,-5l3 4c2,-8 1,-4 6,-9 -4,-2 -1,1 -2,-4 -2,-5 -1,-3 -2,-3l-1 -1c-1,-1 2,0 3,-3 -4,-4 -3,-2 -4,-8 -1,-8 0,-4 -5,-6 0,-7 3,0 2,-9l-1 -7c0,-2 0,1 0,-2l5 2c2,-3 1,-3 1,-7l3 3c2,3 -2,2 3,3l4 -9c-5,1 -9,1 -12,4 -2,2 -4,4 -3,-1 0,-2 1,-2 2,-3 3,-1 7,-1 8,-3 3,-2 1,-3 5,-5 4,-1 5,0 7,-3 -2,5 0,3 0,7 -1,5 -1,2 -3,7 -3,8 4,5 8,8 -1,5 -2,3 -7,2 0,2 0,4 0,5 -1,5 0,1 -3,4 0,0 -1,0 -1,0l-5 3c2,4 1,4 1,7 1,2 2,2 4,5 5,5 -2,-3 3,8 6,-8 4,5 11,-4 0,5 0,5 -3,7 4,1 5,0 9,-1l1 0c4,-2 5,-2 8,-4 0,-1 0,-1 0,-1 0,0 0,0 0,0l1 1c3,2 6,-3 7,-4 1,1 3,0 3,3 0,4 -2,-3 -3,4 11,6 5,-1 7,7l7 0c5,-6 1,-5 10,-8 5,-2 7,-3 12,-6 3,-2 16,-8 20,-4 3,3 -2,-2 0,5l8 4c3,-3 7,-6 11,-6l-2 -1c-3,-1 -3,1 -4,-2 6,-8 15,6 14,-10 -4,-1 0,2 -3,1 4,-10 -2,-12 -2,-18 0,-4 5,-11 5,-17l11 -3c3,3 7,12 11,12 8,0 5,-18 5,-23 -5,2 -3,4 -6,0 -3,-4 -1,-5 -2,-7l-2 -2c0,-2 -1,-3 0,-5 1,-5 11,-7 14,-7 6,0 3,-1 8,-1 6,-1 11,4 21,4l1 -7c4,4 2,0 5,-1 11,-5 6,-2 14,-2 -3,-3 -2,-1 -4,-5 -5,0 -6,-1 -11,-2l-1 -6c-6,0 -3,-1 -6,4 -3,-3 -1,-2 -4,-2 0,0 -1,0 -1,0l-4 1c-3,0 -3,0 -5,0l-5 -1c-7,7 -4,1 -12,5 -3,1 -3,1 -7,3 -1,0 -4,1 -5,1 -4,3 -1,-2 -3,4l-1 -3c-2,-4 -4,-3 -3,-8 -4,2 -4,1 -9,-2 -5,-3 -3,-1 -10,-1 2,-9 -1,-2 0,-10 2,-11 0,-8 -2,-18 -3,-9 -5,-7 0,-17l2 -1c2,0 2,0 4,-1l0 -6c6,-2 3,-2 7,-6l9 -11c3,-5 5,-8 11,-4 -5,-6 -1,4 -4,-13 -2,-1 -4,-1 -7,-2 -11,-5 -14,1 -21,-4 -2,3 1,7 -5,3 2,7 0,5 -4,7 5,5 0,7 2,13 0,0 1,1 2,3 -5,3 -2,0 -4,5 -1,4 1,2 -3,5 -1,2 0,0 -2,2 -2,2 -1,1 -3,3 -4,5 -3,1 -7,5 -7,7 -3,0 -10,11 -3,4 -2,3 -6,4 3,10 0,16 0,16 -1,4 0,5 1,8 0,4 -1,5 2,7 0,1 1,1 1,1 -2,1 -6,4 -7,6 7,-3 7,-10 15,-2 2,2 4,3 5,4 5,7 0,9 -4,12l2 7 -5 2c0,0 0,0 0,0 -6,1 -2,1 -7,4l-7 -1c3,1 1,1 6,1l-4 4c5,2 3,1 3,5 0,2 0,0 0,3 0,1 -1,1 -1,1 0,0 0,1 0,2 -1,1 -1,-1 -1,3 0,1 1,4 1,4 0,2 -1,2 -1,5 0,11 -1,10 -3,20 -10,-4 -10,-2 -18,0l-1 8c-3,0 -9,1 -12,1 -2,-4 0,-5 -4,-12l3 -6c0,0 -1,0 -1,0l-4 -4c-4,-4 -5,-7 -8,-12l-1 -2c-1,-2 0,-8 0,-9 1,-5 -3,-3 -6,-5 -3,-10 -2,-7 1,-12 -4,-1 -4,-1 -7,-3l0 -11c-7,4 1,1 -4,7 2,4 1,0 2,6 -2,3 -1,1 -4,3l-3 2c-2,-3 -2,-2 -4,-5 1,4 1,5 -1,7l-3 6c-2,2 -15,9 -18,8 -2,0 -1,-1 -3,-3 -3,1 -1,2 -3,2 -4,-4 -13,-7 -13,-15l8 2c2,-4 -1,-1 3,-4l-5 0c0,-5 3,-3 -1,-8 -1,2 -6,7 -7,1 0,-4 3,-3 6,-4 0,0 0,0 0,0l1 -5c0,0 2,-3 3,-4l3 -2c0,0 0,0 0,0 2,-1 1,-2 3,-3 -1,0 -5,1 -7,1 -2,1 -2,3 -3,5 -3,-3 -2,-6 0,-11 -6,3 -3,3 -7,4 0,-2 1,-3 2,-5 -2,-1 -1,0 -3,-3l13 0c0,0 0,0 1,0 0,0 0,0 0,0 1,-1 2,-1 2,-1 3,4 -1,1 3,3l6 -5c-1,-3 -1,0 -1,-4 0,0 -1,1 -1,2 -2,1 -4,0 -7,1l-14 1 -1 -4 0 -1c1,-6 0,-1 0,-3l0 -2c4,-2 6,0 10,0 1,0 2,-1 2,-1 3,-1 1,0 3,-1l-15 -1 4 -4c3,1 0,1 5,2 0,-1 0,-1 0,-1 0,0 -2,-1 4,-5 4,2 2,-1 4,4l1 -3 -7 -4c4,-3 5,-1 8,0 4,1 4,-1 7,-2 -5,-1 -8,0 -8,-5 3,-1 7,0 9,2 0,0 1,0 2,0 0,0 0,1 1,1 0,0 0,0 0,0 -1,-2 -2,-1 -2,-5 1,2 4,3 6,4 -1,-3 0,-1 -1,-2l-2 -2c0,0 0,0 0,-1 4,0 3,0 2,-3l7 0c-2,-6 -2,-2 0,-5 4,1 4,3 5,6 1,0 1,-1 1,-1l3 -2c2,0 3,1 6,2 0,-2 -1,-4 -1,-4 2,-5 6,0 4,-7 0,0 0,0 0,-1 -1,-4 2,3 0,-2 -5,2 -3,7 -11,11 -2,-3 -3,-4 -2,-6l7 -13c5,0 4,3 6,-2 4,-6 11,-6 2,-9 2,0 1,0 2,0 5,0 3,3 8,-1 0,-1 -2,-1 -3,-4l3 -5c1,-3 1,-3 3,-4 -2,-5 -1,-1 -3,-5l7 0c-1,-4 -2,-1 -3,-2l0 -2c0,-1 0,-1 0,-1l3 -5c1,-6 -5,-6 12,-8 3,-1 0,0 2,-1 -3,-2 -3,-2 -7,-2 1,-2 0,-1 2,-2 1,-3 -1,0 1,-2l4 1 1 -5c-2,-1 -5,0 -5,0 0,-6 -2,-2 3,-4 2,0 3,0 4,1 0,-4 -3,-3 -6,-5l7 -1c1,3 1,5 4,7l1 -10c-3,-2 -2,-2 -3,-4 -2,2 -3,3 -6,4l-4 1 2 -7 -4 2c-2,1 0,0 -2,1l2 -3c0,0 -1,0 -1,0l-2 0c-1,0 0,1 -1,-1 12,-8 8,-10 13,-10 0,3 -4,5 -6,7 0,0 0,0 0,0 0,0 1,0 1,0 5,3 -2,-3 1,1l2 5c1,-3 1,-1 2,-2l1 -2c0,0 0,0 0,-1 1,-1 -1,-2 3,-2 1,3 0,5 0,7l14 -14c4,4 0,3 6,2l5 1 -2 -3c-2,-3 -2,-4 0,-7 3,1 2,2 4,5 -1,-6 0,-5 2,-9 1,1 5,1 1,11 3,-3 2,-3 6,-4 -5,-2 -1,-4 1,-5 6,-3 4,0 9,2 -1,-2 -2,-3 -2,-6l-6 -2c3,-4 5,-3 9,-2 12,4 2,2 9,6 0,0 0,-1 0,-1l1 -8c3,-2 5,0 6,-3 0,0 0,-1 0,-1 0,0 1,0 1,0 0,-2 -1,-1 -1,-3 1,0 2,-1 2,-1 3,-1 6,-1 10,0 -2,5 -6,10 -3,15 6,-5 1,-2 3,-7 0,-1 4,-8 5,-9 1,2 1,4 1,6 0,0 -1,2 0,4 6,-2 4,1 5,-5 0,0 1,-3 1,-3 0,-2 0,0 -1,-3 3,0 3,0 4,-1 2,-7 -2,2 0,-2 3,1 5,2 8,4 -3,2 -2,1 -6,2 1,0 1,1 2,2l3 2 -4 2 5 1c2,1 1,3 2,0 1,-1 -1,-3 1,-5 2,-3 0,-1 2,-2 3,1 2,2 5,3 2,1 -1,-1 6,0 1,3 -3,1 3,2 4,1 5,1 7,3 -9,8 -9,5 -22,5l12 7c4,0 2,-1 3,-1 4,-1 8,1 10,4l4 -7c2,1 9,4 10,5 -3,2 -6,0 -8,-1 0,6 0,3 3,5 6,3 8,-1 10,6 4,-1 4,-5 10,-3 14,4 11,-2 32,13 4,3 4,4 9,5l6 2c2,0 2,-1 4,1 9,10 7,4 13,12 1,2 4,2 5,4 1,8 -2,6 -3,12 -1,4 -1,7 -7,8 -11,2 -20,2 -26,-4 -4,2 -3,3 -9,0l-22 -9c-8,-4 -1,-5 -11,-4 4,1 1,2 6,6 4,4 6,0 0,5 6,0 4,-2 8,0 0,0 0,0 0,1l0 1c-1,2 0,-2 -1,2 10,2 8,2 16,6 0,13 -1,4 -4,10 8,2 10,17 10,17 8,4 4,1 10,2 4,6 1,4 8,7 6,2 7,3 11,-1 -1,-3 -2,-5 -3,-8 -6,1 -5,1 -11,-3 -3,-2 -3,-2 -3,-6 0,-1 1,-2 1,-2l1 -4c5,2 10,7 15,9 3,1 2,0 4,1 3,1 3,1 5,3 5,2 3,0 9,1 -3,-6 2,-3 -3,-9 -5,-7 -8,-5 -2,-13 1,-2 2,-3 3,-5 5,-4 4,-1 9,-9 3,1 3,2 6,2l4 2c0,0 0,0 1,1 0,0 0,0 0,0 4,2 4,-2 8,4 -1,-6 -1,-9 -1,-14 -1,-7 -4,-4 -8,-8 -1,-6 0,-12 -3,-17 -2,-5 -6,-6 -10,-9 4,0 5,1 8,2 4,1 7,0 11,1 6,2 4,2 7,5 0,0 0,0 0,0 3,3 4,3 6,7 -2,1 -1,0 -3,1 -7,4 -11,4 -3,11 4,3 6,6 11,6 2,0 1,1 4,0 7,-1 5,-8 3,-12l8 -2 7 -8c0,-1 1,-3 1,-3 3,-2 7,-3 11,-4 1,3 1,4 3,5 3,-6 -2,-1 -1,-6 1,-2 2,1 6,2 -2,-7 -2,-7 7,-7 -1,0 -1,0 -1,0 -1,1 -1,1 -2,1l-2 1c0,0 1,0 1,1 1,3 3,-3 3,4 0,6 0,-2 -3,5 3,1 6,1 10,1 3,-1 3,-2 4,-4 2,-2 -2,0 2,-2 4,-2 9,2 12,-1 0,-1 1,0 -2,-1 8,0 4,0 11,-3 2,1 2,1 4,2l1 9 6 0 -2 -5c5,0 2,0 5,-1l3 -3 -8 -7c-6,-6 -3,-5 -4,-11 4,1 5,3 10,3 8,1 16,3 22,9 2,2 3,0 11,5 5,3 9,4 12,7l10 10c3,-5 -1,-6 1,-12 -7,-3 -2,2 -9,-5l-3 -2c0,0 0,0 0,-1 -3,-3 -1,-3 -6,-4 -10,-4 -8,-9 -11,-17 0,-1 0,-1 0,-1 -2,-4 -7,-4 -8,-8 -3,-6 1,-8 1,-12 1,-6 -7,-19 -6,-26 3,3 10,3 18,7 6,2 4,0 5,5 2,3 3,5 5,8 4,14 0,8 9,17 2,2 1,1 2,3 2,3 2,2 3,3l14 26c5,8 6,8 12,13 5,4 1,2 4,9 1,3 5,6 3,18l-1 10c-6,-2 -2,-1 -5,-4l-2 -1c-2,-1 -9,-2 -12,-2 1,2 2,1 5,3 2,1 3,3 6,4 4,3 4,2 9,3 7,1 3,1 8,3 2,-4 0,-1 0,-5 1,-2 2,-3 3,-6 1,-4 -1,-6 -1,-13 1,-12 -11,-8 -9,-20 2,-2 6,-3 9,-3l6 7c5,5 6,10 9,15l3 3c1,0 1,0 1,0l4 1c0,0 1,0 2,0l-4 -1c-3,-2 -4,-3 -6,-7 -4,-9 4,-6 -16,-19 -1,-1 -4,-4 -5,-4 -9,-3 -2,0 -6,2 -6,-2 -5,1 -9,-5 -4,-8 -7,-12 -9,-20 -2,-7 -9,-10 -14,-15 -2,-2 -4,-9 -3,-11 2,-6 -3,-11 -6,-16 4,1 2,1 5,4l12 19c2,5 5,6 12,8 4,1 2,-1 6,2 4,2 2,2 8,3 -7,-3 -6,-6 -14,-9 -6,-2 -10,-6 -12,-12 8,1 4,4 12,5 -2,-8 -4,-5 -8,-7 2,-2 1,-2 3,-4 13,4 19,15 27,16 1,0 2,0 4,0 5,2 3,6 4,10 1,2 3,4 4,6 2,3 2,5 3,8l0 -1c0,0 0,-1 0,-1l3 -3c1,2 0,0 1,2 3,8 -1,5 7,10 5,3 6,8 11,10 0,-5 -11,-7 -12,-13 -2,-4 0,-2 -6,-11l-11 -16c-4,-4 -8,-4 -12,-8 -2,-4 0,-3 -4,-5 -3,-1 -4,-1 -7,-3 -5,-3 -11,-16 -16,-21 2,1 9,1 12,1 6,0 7,0 13,-1 1,8 -2,4 5,10 -6,-7 -2,-2 -1,-7 -2,-3 -4,-5 -7,-6 -3,-2 -4,-4 -8,-5 1,-3 -1,-1 1,-2l2 0c-3,-1 -1,-1 -4,-2 -2,-1 -1,0 -2,-1l-2 -2c-2,-2 -2,-1 -3,-3 2,-3 1,-1 3,-3 0,4 -5,2 3,6 0,-6 0,-5 -5,-7 1,0 1,0 1,0 0,0 1,-1 1,-1l3 -5 10 1c0,-1 -1,-2 -1,-1l-4 -4c0,0 0,0 0,0l5 0c1,-1 -1,-2 1,-1 5,3 0,0 1,2 0,0 0,0 0,0l3 3c2,3 1,1 2,2 1,0 3,0 4,1 0,-7 1,-2 -2,-6 5,4 5,0 -2,-7 -3,-2 -5,-6 -9,-9 2,-2 3,0 6,3 5,4 7,7 13,11 6,3 4,2 8,7 2,2 3,4 6,3 148,140 241,338 241,558zm-46 263c-7,19 -16,39 -24,58 2,-5 3,-9 3,-12 3,-11 5,-3 14,-31 2,-4 4,-10 7,-15zm-90 172c-1,1 -2,3 -3,4 1,-1 2,-3 3,-4zm-50 64c-1,1 -2,3 -4,4 1,-1 2,-2 4,-3 0,-1 0,-1 0,-1zm-42 45c-6,6 -12,12 -18,17 0,0 1,-1 2,-1 5,-6 11,-11 16,-16zm-1005 62c-94,-73 -172,-168 -224,-276 -2,-15 -15,-37 -16,-44 -1,-7 1,3 2,-5 0,-4 -1,-5 -1,-10 4,-2 2,1 5,-1 4,-2 -2,-1 3,-3 4,7 -2,5 3,11 2,2 0,0 4,1 10,1 6,6 10,11 2,1 5,1 8,3 2,2 1,3 5,6 1,-1 11,-5 11,0 0,0 0,0 0,0 0,4 2,6 5,8l6 8c0,0 0,0 0,1 2,6 2,0 12,12l6 10c1,2 5,5 9,10 4,5 13,4 18,8l5 5c6,4 7,4 11,10 2,3 4,4 6,6 3,4 3,9 7,14l9 13c1,6 -4,7 -6,11 0,0 -1,4 -1,5 6,-4 1,-3 5,-5 -2,2 -2,3 0,6 0,0 0,-1 0,-1 1,1 4,-4 3,-7 3,1 3,2 0,4 6,0 6,0 13,6 0,5 0,3 -1,7l-9 0c1,0 1,0 2,1l5 3c0,2 0,5 0,5 0,1 1,3 1,4 0,-10 0,-8 5,-15 0,0 0,-1 1,-1l19 10c2,2 1,1 2,2 3,1 2,-1 5,2 1,1 1,2 2,4 1,2 0,1 1,2l1 3c10,-1 4,-2 20,5 7,3 12,4 19,8 9,6 9,8 19,16 8,7 5,4 14,7l1 1c5,2 8,11 11,16 3,4 2,2 2,5 -1,8 -2,17 -12,20 -1,4 -1,9 -3,11 -3,0 -3,-2 -4,-2 -2,2 -1,5 0,8 3,8 8,16 9,24 0,4 -2,3 0,7 2,6 2,1 1,8 -2,6 -2,4 1,8 -9,0 -5,3 -14,-2 -7,-4 -8,-1 -14,-1 -4,-1 -8,-1 -6,5 2,6 7,4 7,12l-3 -1c0,0 0,1 0,1zm-244 -321c-2,-6 -4,-11 -6,-16 0,0 0,0 1,1 3,4 6,4 9,13l-3 -4c0,0 -1,0 -1,0 0,-1 0,-1 0,-1l0 2c0,2 0,3 0,5zm-16 -45c-4,-11 -8,-23 -11,-36 1,5 3,9 4,12 2,6 4,15 7,24zm-34 -152c-3,-29 -5,-59 -5,-88 0,-155 46,-299 125,-419 -2,3 -3,6 -5,9 -7,11 -5,5 -7,18l-1 -4c-2,4 -1,4 -1,4 1,3 -2,6 -3,9l-1 1c-1,2 0,1 -2,3 -4,7 -1,6 0,7 1,-4 3,-8 5,-11l8 -11c4,-5 6,-10 9,-16 1,-2 1,-2 2,-3l3 0c3,1 0,6 -1,9l-3 6c-7,8 -2,-2 -9,17 -2,4 -8,14 -12,18l-9 4c-3,3 -1,2 -2,5l-3 9c-1,2 -2,2 0,3 0,1 1,1 1,1 0,7 1,9 -3,14 3,1 4,-3 3,3 -1,3 -3,4 -5,5l-3 -6 -6 12c-2,3 -1,2 -4,4 2,-5 1,-5 2,-8l11 -23c-2,-1 1,-1 -3,2 0,-8 0,-4 -2,-6 0,4 0,4 0,6l1 2c0,1 0,1 0,1 0,0 0,0 0,0 -5,8 -11,18 -17,26 -1,1 0,-1 -1,2 -4,11 -8,16 -13,27 -5,10 -8,20 -12,31 -4,11 -6,23 -10,35 1,0 1,0 1,0 1,3 -3,-2 1,0 3,1 1,6 4,18l6 0 -7 28c5,1 -3,-1 2,-1 2,0 0,-1 2,1 -1,5 0,2 -2,2 -6,2 2,-2 -2,0l0 14c1,3 0,5 0,7 9,-5 10,-32 13,-45 0,-5 2,-4 6,-8 2,-4 10,-14 11,-18 2,-7 5,-18 4,-25 0,-6 -2,-5 1,-11 7,-13 10,-15 12,-29 0,-4 2,-5 4,-9 4,-9 -1,-8 8,-18 5,0 2,2 6,2 4,0 3,-3 7,-5 1,4 1,3 1,5 1,16 1,5 -1,13 7,3 7,-3 6,4 3,-2 1,-3 3,-2 -2,3 -3,4 -4,7 -1,4 -2,5 -3,8 -4,0 -2,-1 -6,0 4,2 2,0 6,3 -1,3 -1,3 -2,5 0,4 1,3 0,6 -2,5 -6,0 -5,7 4,-4 1,-3 6,-3l1 9c3,-3 5,-4 8,-9 5,-6 6,-3 10,-13l8 -17 0 21c1,13 -1,7 -4,12l5 -2c-2,4 0,3 -4,6 3,1 2,-1 4,2 3,4 1,5 -3,7 3,2 3,4 4,8l-7 6c1,1 2,4 -1,6l4 1c0,0 1,2 1,2 7,8 -3,11 1,11l2 -1c3,-1 1,-1 2,-1 2,4 -1,4 -3,8l6 -5c0,0 0,0 0,0l2 2c4,2 2,0 7,5 -5,2 -9,4 -15,7 3,1 3,-2 3,1 -1,3 -6,1 -11,12 4,-1 3,-2 6,-4 3,-4 9,-14 16,-10 0,4 -1,3 -2,8l3 -2c0,0 1,0 1,0 4,0 2,2 5,4 -3,10 -5,3 -3,14 0,3 -1,5 -3,7 -6,6 -6,7 -11,7 -9,2 -6,1 -10,8l-6 7c-3,2 -5,2 -10,3 -3,2 -9,-1 -16,-1 -4,1 -7,1 -10,-1 -1,5 -1,3 -4,7 -2,4 -1,4 -3,7 -2,4 -2,2 -5,4 -6,5 -8,12 -12,19l-7 12c10,-10 14,-30 33,-31 3,3 6,6 1,11 -5,7 -4,2 -10,4 5,3 3,-1 4,5 2,-3 1,-2 5,-3l-3 9c-1,5 0,9 3,12l0 2c2,2 -1,-2 1,3 7,2 6,1 9,1 5,1 2,2 5,6 -6,1 -11,8 -16,8 0,0 -1,0 -1,0 -2,0 -4,5 -5,7 -1,1 -2,3 -2,4l-3 3c-4,-7 -2,-18 7,-21 3,-2 2,1 6,-3l-7 0 3 -5c-5,5 -4,9 -15,8 4,6 -2,8 -6,9 -5,2 -12,13 -13,21 -1,3 -2,5 -1,7 0,0 1,3 1,3 0,3 1,3 -1,4l-4 2c-2,1 1,-1 -2,1 -1,1 0,0 -2,1 -4,2 -1,0 -5,3l2 1c3,1 1,-1 4,1l-6 2c0,0 0,-4 -1,-2 -3,4 -2,15 -5,21 0,0 0,0 0,0 -1,3 0,0 -1,0 0,0 0,0 -1,0 1,7 0,13 -2,18l-1 -17c-2,4 -1,3 -1,8 -5,-4 -2,-2 -1,3l1 23c0,4 1,0 1,6 -2,1 -2,0 -3,2 0,7 1,3 -2,8 0,1 -2,5 -3,6 -3,6 -7,18 -6,26 0,10 9,50 6,55 -4,-7 -8,-37 -10,-47 -2,-1 0,-1 -1,-1 -4,1 2,2 -1,1 -1,-6 -1,-7 -5,-9 0,1 0,2 0,3zm147 -545l2 -2c0,0 1,0 1,-1 0,0 0,0 0,0l5 -5c4,-5 9,-12 13,-15 0,2 0,1 -1,3l-14 16c0,0 0,0 0,0 0,0 0,1 -1,1 0,0 0,0 0,1 -3,4 -8,11 -10,16 -2,6 1,3 -3,7 -1,1 -4,4 -5,5 4,-4 1,1 4,-4l9 -16c4,-3 1,1 4,-3 3,-4 3,-7 7,-12l17 -18c1,0 1,0 1,0 0,3 2,0 4,-1 2,-2 4,-3 8,-4 -1,11 -7,14 -16,18 1,-6 4,-5 2,-8 -4,7 -8,15 -14,21 1,2 2,-1 3,-2 2,-2 2,-2 4,-4 0,0 0,0 0,1l0 4c0,0 0,1 1,1 0,-3 0,-5 0,-6 2,-1 2,-1 4,0 0,-4 0,-5 3,-7 4,-3 4,-1 7,-2l-2 7c-1,2 -2,4 -4,5 0,0 1,0 1,0 0,1 0,0 0,0 0,0 1,0 1,0 0,0 0,0 1,0 0,0 0,0 0,0l2 1c2,0 0,-1 4,-2 0,7 0,5 -3,8 -1,0 -1,1 -1,1 0,0 0,0 0,0l2 -1c4,6 2,2 4,3 1,1 1,-1 2,4 -9,8 -5,8 -11,12 1,-3 2,-4 4,-6 -3,2 -6,4 -6,6l2 2c3,-5 6,-4 9,-10 0,0 0,-1 1,-1 0,1 1,-3 1,4 -1,5 -6,6 -10,8 5,5 4,-1 6,4 -3,6 -6,-2 -8,4 -5,6 1,-6 0,1l-7 8c2,1 4,2 7,2 -2,1 -3,1 -5,2 2,2 3,4 5,5 2,0 3,-1 5,-3 -2,6 -1,2 -6,4l8 1c-1,1 -2,1 -3,3 -2,3 -2,3 -3,5 2,0 3,-1 5,-2 2,0 1,0 2,0l2 -1c-2,7 0,-4 -4,4 2,2 3,1 6,1l1 5c-7,2 1,-2 -4,1 0,2 0,3 -1,4 -4,2 -1,-1 -4,1 0,0 -1,1 -1,2 0,1 0,1 2,2 -2,0 -3,1 -3,1 -2,1 1,-3 -1,1l-4 4c-5,4 1,-1 -3,0l-5 14c-6,-5 -5,-12 0,-17l-2 1c-2,1 0,0 -3,1 2,-2 2,-2 4,-4 -2,-4 -1,4 -4,1 -1,-1 0,-4 0,-4l0 -3c0,0 -3,4 -4,5 -2,4 -1,1 -1,7 -1,0 -5,-5 -5,-3 -1,5 1,6 -2,9l2 0c0,0 0,0 0,0 0,0 1,0 1,0l-1 5c-1,3 -1,4 0,5 2,3 3,0 2,5 0,0 0,0 0,0l0 3c-1,5 1,12 -4,14 0,0 0,0 -1,0 0,3 0,7 -2,8l-1 0c-1,6 2,7 -1,8 1,-4 -2,-9 -4,-13 0,0 0,1 0,2 0,3 2,0 -1,2 -1,-3 -1,-6 -4,-8 -3,-2 -1,-1 -2,-1 -3,4 0,9 1,13 1,1 2,7 2,8l-2 6c-5,-1 -9,-4 -12,-8 -3,-6 -8,-6 -1,-13 -2,-3 -2,-2 -3,-2 0,-6 0,-9 -2,-12 -1,-2 0,-1 -1,-3 -2,3 0,2 -1,4 -2,4 -3,2 -7,5 -3,3 0,1 -4,3 -3,-8 5,-11 6,-18 9,3 6,0 13,-4 1,-1 0,0 1,0 6,-2 -1,0 2,-1 1,-9 0,-8 5,-13 4,-5 3,-7 11,-7 0,4 1,4 -2,6l3 -1c3,-1 6,-2 7,-5l-3 -8c-2,5 -3,7 -10,7 3,-8 6,-2 9,-14 4,-1 4,4 5,-3 -3,-1 -1,1 -4,0 1,-1 1,-1 1,-1l1 -3c2,-3 1,0 1,-3l-1 -4c0,0 -1,-1 -1,-1 0,0 0,0 0,-1l-2 -3 -3 3c3,-6 -3,-2 2,-8 1,2 0,-1 0,2l0 3c5,-4 1,-12 6,-18 0,0 1,0 1,0 0,0 -1,-1 -1,-1l-1 -1c-1,-1 0,-1 -2,-1 -2,6 0,11 -10,10 1,4 2,3 0,6 -1,-4 1,0 -1,-4l-8 4c-1,0 -4,-1 -5,-1 1,-2 2,-5 3,-6 3,-5 2,-1 5,-5 0,-6 -1,1 0,-3 0,-5 8,-14 12,-18l3 -5c1,-2 0,0 1,-2zm-1 1c1,-1 2,-2 2,-3 0,0 0,1 -1,2 0,0 0,0 -1,1zm6 -8c2,-3 4,-5 6,-8 0,1 0,1 -1,1 -1,3 -3,5 -5,7zm20 -25c5,-6 10,-12 15,-17 5,-2 12,-11 19,-14 0,6 -16,20 -21,23 -4,2 -6,4 -10,6 -1,1 -2,2 -3,2zm298 -48c5,0 7,1 12,4l3 1 -7 2c7,0 6,-3 13,1l-1 3c-6,0 -7,-2 -15,-3l0 -1c0,0 0,0 0,0l-8 -2 3 -5zm-183 6c-3,0 -5,1 -5,1 2,-2 2,-2 5,-1zm-87 11c52,-56 112,-104 179,-143 1,0 2,0 5,-1 0,0 0,0 0,1 0,0 0,0 0,0 0,0 1,0 1,1l3 1c-5,1 2,-1 -3,0 -3,1 0,-1 -1,1 -2,2 -1,4 -12,7l6 0c-1,0 -1,0 -1,1 0,2 -2,2 -1,4 5,-3 -2,-6 18,-13 6,-2 10,-6 16,-7 3,-1 2,2 4,-2 0,5 -1,2 -2,5l0 3c-2,-4 0,0 -1,-3 0,-1 0,-2 0,-2l-1 -2c-1,3 -3,6 -7,7 3,2 0,1 2,0 3,0 1,-1 3,0 1,0 1,1 3,2l6 -3c7,-3 6,-13 16,-12 0,8 -2,3 -3,11 8,-2 6,-3 14,-2l-1 -2c-2,-4 -1,-10 2,-13 4,-3 8,1 12,-4l0 -3c7,2 -4,2 8,2l-1 5 7 -1c-1,1 -4,-1 -5,-2 1,-1 1,-2 2,-3 -4,-2 -4,-1 -7,0 0,0 0,-1 1,-1 0,0 0,0 0,0 1,-3 6,-5 10,-6 3,-1 5,0 7,0l7 -1c0,0 -1,-1 -1,-1 0,0 0,-1 0,-1 0,0 0,0 0,0 0,0 -2,0 0,-1 5,2 9,-3 13,-5 4,-2 2,0 6,-2 10,-3 35,-8 43,-4l-6 2c-3,0 -5,1 -9,1 -5,1 -12,4 -16,4 -5,0 1,-4 -6,1 -7,4 -10,3 -17,8 4,-2 1,-1 5,-2 3,-1 3,-2 7,-3 4,-2 4,0 7,-1 2,-1 5,-2 8,-3 7,-2 9,-2 17,-2 6,-1 13,-6 15,-2 -2,2 -8,3 -11,4 0,0 1,0 1,0l2 0c7,0 15,-6 25,1 -6,5 -30,10 -41,11 -12,1 -20,4 -31,8 -4,2 -7,1 -7,6 3,-1 6,-3 11,-5 3,-1 7,-2 10,-3 6,-3 17,-4 25,-5 -1,3 -2,4 -6,5 -5,1 -5,0 -7,4 4,-1 17,-3 19,-4 7,-3 -1,-6 15,-7 -1,5 -1,2 -4,5 -1,2 -2,3 -4,4 -4,2 -9,4 -12,6 -5,3 -7,5 -11,7 -4,2 -9,4 -11,8 4,-2 3,-2 5,-3 16,-11 37,-15 42,-21 3,1 -4,-1 1,1l8 -1 -2 -7c1,4 0,2 2,5 4,0 3,-1 7,-3 10,-3 20,-2 26,4 -3,3 -5,3 -8,5 -7,3 -1,2 -10,3l0 4c-5,1 -4,1 -7,2 -4,1 -5,0 -9,0 -2,1 -14,4 -15,4 6,1 15,-3 20,0 -8,7 -14,3 -23,5 -1,3 -1,-2 1,0 1,2 1,0 2,3 -3,0 -4,1 -4,-1l-1 -1c0,0 0,0 0,0 -5,3 -2,0 -5,6 8,-1 10,-7 20,-4 -8,9 -17,9 -23,24 0,1 0,1 -1,3 0,1 0,0 -1,2 0,0 -1,1 -1,1 -2,3 -1,4 -4,7 -6,0 0,-3 -8,-2 1,3 2,6 5,6 3,1 1,0 1,0 0,0 -1,-6 1,0l0 5c-1,-1 -1,-2 -5,-2 -1,2 0,1 -1,4 5,3 1,-1 4,3 5,-2 2,-2 9,-1l-5 11c-6,-2 -8,-4 -13,-5 -5,2 -6,7 -11,5 -1,8 1,5 -4,7 7,3 4,3 14,2 -1,3 -2,3 -5,5 6,1 6,1 5,5 -2,7 -1,6 -4,10l-5 -3c-4,-2 -5,-5 -6,-7 -2,2 -2,-1 -1,2 0,3 4,3 6,6 -9,7 -9,2 -10,1l1 4c3,0 4,-1 6,-2 1,1 1,3 0,6 8,0 1,2 9,0 -1,7 2,4 -4,9 -5,-2 0,-3 -5,-5 -1,2 2,4 -3,7 -1,1 -3,1 -4,0 -5,-3 -2,0 -3,-4l9 -3c-1,0 -1,0 -1,0l-7 -2c0,3 0,1 -1,4 -2,3 -7,5 -3,8 1,2 0,-1 3,0 6,2 2,1 9,0 -2,4 -2,4 -4,9 -8,1 -7,1 -9,2 -6,3 -11,4 -15,-3 2,-2 -1,0 3,-1l4 0c-1,-1 -3,-1 -5,-1l-4 -2 -2 5c-5,-2 -3,-4 -7,-6 0,0 0,0 0,1 1,2 0,0 1,1 1,2 1,-1 2,3 1,4 0,2 0,2l-2 2c-7,3 -8,5 -15,-1 1,3 1,2 4,5 -4,3 -6,0 -8,4 21,-5 5,-5 18,-2 -3,5 -2,1 0,5 -5,-1 4,0 -2,-1 -3,-1 -4,0 -6,1 -1,0 -1,0 -1,0 0,0 -1,0 -2,0l0 4c4,-2 5,-5 10,-1 -1,5 -4,3 -7,9 5,-2 7,-9 20,4 -2,4 -1,2 -4,5 3,0 1,-1 4,-1 1,2 -1,6 -1,8 2,-2 3,-3 5,-4l-1 3c0,0 0,0 0,0l-1 5c-1,5 1,6 -2,11 -1,0 -2,0 -3,-1 -3,-2 1,2 -1,-2 -1,-1 0,0 -1,-2 -1,-3 1,-1 -1,-3 0,4 0,6 -2,9 -5,0 -7,-2 -9,-6 -2,-3 -3,-6 -2,-10 -6,1 -5,-1 -8,-5l-8 1 -4 -7c-3,7 -3,2 0,7l-5 3c6,-1 15,-3 19,2 -1,6 -14,10 -19,5 -1,4 0,1 -1,3 -1,3 -2,6 -6,8 -3,2 -4,1 -8,4 6,-3 7,-1 13,-1 2,-4 2,2 0,-2 -2,-3 0,3 -2,-2 4,-1 8,-4 13,-7 7,-3 10,-8 9,5 -6,2 -11,3 -18,3l8 2c-1,0 -1,0 -1,1l-2 1c-4,2 -9,2 -13,3 3,2 8,1 10,0l13 -4c4,-2 6,0 11,1 3,1 9,-1 13,1 -3,2 -3,1 -6,2l-2 2c0,0 0,0 0,0 0,1 0,1 0,1 -1,0 -1,0 -1,0l-1 2c-2,1 -1,0 -2,1l-3 1c-1,1 -1,1 -1,1l-12 9c-2,2 -2,0 -4,2 -4,4 -13,7 -17,8 -6,1 -7,2 -12,4 -9,5 -4,3 -10,2 -4,5 -4,3 -12,5 -2,-3 -3,-7 -4,-10 -2,4 1,7 0,12 -3,3 -4,2 -8,6l-11 12c-2,2 -1,1 -2,2 -5,9 -3,3 -8,10l-6 0c-1,1 0,4 -4,6 -3,1 -3,-1 -5,1 -7,5 4,-2 -2,2 -5,-4 -1,-1 -3,-4 -1,2 0,1 -1,3 -1,2 -1,4 -3,5 -4,2 -3,-1 -3,-1l4 -7c1,-1 1,-2 2,-4 -1,0 -2,0 -3,-1 -2,4 0,3 -2,6 -4,6 -1,1 -3,2 0,11 -8,6 -15,8 1,8 -2,10 -9,7 -2,6 0,4 0,12l-8 2c3,3 2,1 6,3 -1,2 -2,5 -2,7 -5,-1 -4,-3 -7,-2 1,3 0,0 2,2l3 2 -6 5c-1,-2 0,-2 0,-4 0,0 0,0 0,0 -2,1 -2,1 -2,4 0,0 1,0 1,0l0 2c-2,-1 -1,-1 -4,-2 2,4 1,0 2,3 1,2 2,0 0,1 -2,3 -2,0 -3,-1l2 4c2,2 1,-2 0,0 -3,6 -3,2 -6,2l-6 3c6,2 5,-1 6,5 -6,-1 -1,-1 -6,-2 1,0 10,12 -3,12 3,1 2,1 1,2l-3 4c-1,1 0,-1 0,3l1 3c-2,1 0,0 -2,1l-4 2c2,3 2,3 2,7 -2,0 -1,0 -3,-1 -1,0 -1,0 -4,-1l3 5c2,3 -1,3 -4,2 -5,-3 -1,-2 -6,0 1,-4 2,-6 -1,-5 -2,1 0,0 -1,1l-1 -2c0,0 0,0 0,0l0 0c0,0 -1,0 -1,0 -3,0 1,2 -2,-1 4,-2 3,-6 6,-8 -1,-1 -3,2 -4,-3 -4,6 0,2 -5,4 -3,2 -4,2 -7,3 -2,-1 0,0 -2,-2l-6 -4c2,-2 1,-2 3,-4 -3,1 -2,2 -6,2 1,0 1,-1 2,-2 0,0 0,-1 1,-1l-1 -3c1,-2 1,-2 3,-2l-4 -2c2,-3 1,-5 -1,-7 3,-3 3,-2 4,-6 -1,0 -4,-1 -4,-2 0,0 2,-1 1,-2l2 -3 -5 -1c2,-1 1,0 4,-2 1,-1 2,-2 3,-3 -1,1 -2,1 -3,1 -3,1 -1,1 -4,2 1,-4 1,-2 2,-5 0,0 -1,0 0,-1 1,-2 6,-3 8,-4 0,0 0,0 0,0l-3 0c-3,0 3,0 -2,1 0,-2 -2,-3 1,-5 1,1 0,0 0,1 0,2 -1,-1 1,2l2 -2c0,-1 0,-1 0,-1 0,0 0,-1 0,-1 1,-2 3,0 5,1l-1 -6c0,0 -1,1 -1,1l-11 8c1,-8 0,-8 7,-10 -2,-1 -3,0 -5,2l0 -7c0,0 0,0 0,0l0 -1c1,-3 1,0 0,-6 0,-2 3,-4 9,-7 -4,0 -5,3 -8,1l18 -14c-6,1 -13,11 -20,14 0,-3 1,-4 3,-6 5,-2 5,0 1,-3 5,-1 4,0 2,-4 3,1 2,1 5,0 0,-1 -1,-1 -1,-1 0,0 0,0 -1,-1 -3,-1 -1,1 -2,-2 3,-2 7,-2 10,-5 -5,1 -9,2 -11,4 1,-4 6,-9 9,-10 7,-1 10,4 15,2 -4,-1 1,2 -2,0l-3 -2 2 -1c1,-1 1,-1 1,-1 2,-2 1,0 3,-2 -4,-1 -3,2 -5,1l0 -2c-1,1 -2,2 -4,4 -4,0 -5,-1 -9,1 -3,2 -1,1 -2,2 -1,-1 -1,-1 1,-3 0,0 0,0 0,0l6 -8c1,2 1,2 3,2 4,0 6,0 9,1 -1,-4 -1,-1 -1,-4 0,-2 -1,0 0,-2 0,0 2,-2 2,-2 -8,0 -4,6 -10,3 2,-4 7,-5 12,-6 1,-3 0,-4 2,-7 2,-5 1,0 6,0 -4,-5 2,-1 -2,-4l3 -5c0,0 1,-1 1,-1 -2,-1 -3,-1 -3,-1 0,-1 0,-2 1,-4 1,2 0,3 1,5 2,-3 3,-3 4,-6l-4 -1c-3,0 -1,1 -4,0 -6,-2 -1,0 -4,-2 -1,-1 1,-1 -2,-1 -1,0 -2,0 -3,0l-1 -7c5,-3 7,-2 13,-2 2,4 1,6 6,7l0 -3c0,-3 -1,-4 -3,-6 0,0 0,-1 0,-1 4,2 1,2 5,2 -1,-1 -2,-2 -3,-3l5 -2c-2,-1 -3,0 -6,-1 1,-2 1,-2 3,-4 1,3 0,0 0,2 0,5 -2,-2 0,1 5,-2 -1,-1 3,-4 -3,0 -3,1 -6,1 1,-2 3,-3 5,-5 -6,-1 -7,-2 -10,2 -2,5 2,1 -3,4 -5,4 -8,-2 -1,-7 4,-2 4,-1 7,-5 -4,3 -1,3 -7,4 3,-6 10,-7 5,-9 -1,0 -1,-1 -1,-1 8,-2 4,-1 9,-8l-2 -3c0,0 -1,0 -1,0 0,0 0,0 0,0 5,-2 5,-6 5,-10l-1 -3c6,-1 2,2 4,-4l2 -5c0,0 0,0 0,-1l1 -1c0,0 0,-1 0,0l-1 -5c0,-5 1,-10 6,-13 -4,-5 -2,-1 -6,-4 -3,-2 -5,-3 -9,-2 -2,1 -2,1 -3,2 -5,3 -8,5 -13,3 -2,4 -1,5 -5,6 -1,-1 -1,2 -2,-3 -1,-4 -1,-1 1,-3 0,0 5,-3 6,-3 0,0 0,-1 -1,-1l-3 -3c2,-2 2,-2 5,-3l-4 -2c3,-1 4,0 12,-4l5 0c0,0 -1,0 -2,0 -2,-2 -1,0 -1,-2 2,0 5,-1 6,-2l4 -4c-4,1 -7,3 -11,5l-2 -3c0,-5 0,-2 1,-4 4,-4 27,-20 33,-22 17,-8 12,-8 24,-17 0,0 0,0 0,-1l-1 0c0,0 -1,0 -1,0l-3 1c1,-3 7,-7 10,-9 2,-2 4,-3 6,-4l5 -3c1,-2 0,-1 1,-3 -17,8 -44,30 -46,32 -4,1 -2,-1 -5,1l-8 6c-6,4 -2,1 -4,5 -3,3 -2,1 -5,3l-26 23c-4,3 -4,4 -7,8 -5,4 -9,6 -12,12 -1,1 -2,3 -3,4l-13 11c0,-2 1,0 -1,-2l-1 1c-1,1 0,0 -2,1 -3,3 -8,6 -11,9zm973 434c0,0 1,0 1,0l-1 0zm7 58c10,9 4,7 9,13 11,11 3,3 12,8l-3 2c-1,0 -2,0 -3,0 -3,6 -2,13 -3,20 -3,-4 1,-2 -3,-4 0,6 2,19 4,23l10 3c3,1 0,-1 2,1 15,14 17,3 31,5 5,0 3,1 5,-1l-5 -30c-3,-4 -5,-2 -7,-6l5 -1c-2,-5 0,3 -2,-6 -4,1 -5,2 -4,2 -7,-4 -2,-13 -6,-22 -9,-15 -4,-6 -4,-19 -1,-1 1,0 -2,-1 -6,-2 -10,-3 -12,-8 0,0 -1,-2 -1,-3 -6,-14 -10,-8 -12,-14l12 -1c0,0 0,0 0,0l-3 -4c-2,-4 -1,-2 -1,-6 3,-7 14,-1 18,-1l-3 -6c-1,-8 3,-7 -3,-18 -5,0 -6,0 -9,3 -13,-14 -13,7 -26,3l0 6c0,0 -1,0 -1,0l-2 0c-1,0 0,0 -2,0 2,2 0,-1 2,3 -6,0 -2,0 -4,2 0,0 0,0 0,0 -2,2 -4,2 -6,1 -1,6 -5,14 -5,18 0,5 3,2 6,6 4,5 -1,2 5,5 -1,6 -3,1 -1,6 3,8 5,15 12,21zm-229 30c4,-2 2,-3 6,-3 5,0 1,1 6,1l15 -1c0,-2 -1,-2 1,-3 1,-2 4,-1 6,-1l-5 -3c-1,-1 -1,-2 -2,-4 9,-3 17,0 25,0 8,-11 5,-7 17,-11 11,-5 13,-1 23,-4 1,3 3,4 5,6 3,-1 1,-1 6,-2 2,3 3,6 6,6l8 3c11,5 12,4 18,2 10,-3 11,4 21,-3 3,-3 4,-2 5,-7 0,-3 -1,-8 -1,-10l-10 -12c-23,-10 -16,-15 -31,-20 -10,-4 -5,-6 -14,-9 4,-2 1,0 3,-4 3,2 1,2 5,1 2,-7 -2,-5 6,-12 -3,-3 -4,-1 -6,-6l7 -1c-3,-6 4,-4 6,-10l-15 2c-8,1 -9,10 -21,8 0,0 -1,1 -1,0 0,0 0,0 0,0l-4 7c-1,-3 0,-1 0,-4 0,0 0,0 0,0 0,-1 0,-1 0,-1 -7,6 -8,3 -13,6l-1 1c8,2 5,2 10,7 3,2 5,5 9,4 5,-1 7,-3 13,-3 -1,6 0,6 -7,6 -7,0 -2,1 -8,4 -5,2 -3,0 -9,4 -4,3 -7,4 -8,0l0 -2c0,-1 0,-1 0,-2 0,-2 1,-2 -1,-4 -2,-3 -5,-2 -9,-2 2,-4 4,-5 8,-7 1,-1 1,-1 2,-2 -1,0 -2,-2 -2,-2 -3,-2 -7,-2 -10,-2 -4,0 -2,1 -6,-2 -1,0 1,-1 -4,-3 0,0 1,0 1,0 0,0 0,-1 0,-1 3,-3 -1,3 1,-1 3,-4 0,-2 -2,-2 0,0 0,0 -1,1l-1 0c-9,1 -10,12 -17,15 -5,3 3,-3 -1,1 0,6 1,16 -8,9 0,6 -1,4 -1,10 1,21 -5,9 -7,18 -2,7 2,2 -3,8 7,8 3,5 7,15 5,3 11,2 9,8 -4,2 -3,1 -8,1 -8,1 -4,1 -7,4 -3,3 -6,2 -10,6 -2,2 -1,0 -1,2zm-459 164c0,-1 0,-5 6,-7 0,6 -2,7 -6,7zm-1 0c1,1 1,0 1,0 0,0 0,0 -1,0zm0 0c0,0 0,-1 0,-1 0,1 0,1 0,1 0,0 0,0 0,0zm432 -94c0,0 0,-3 5,-3l2 1c4,1 0,2 7,1 3,-1 7,-2 9,0l8 4c-18,5 -17,0 -22,-1 -4,0 -5,1 -9,-2zm118 3c-9,2 -7,8 -16,4 -4,-2 -3,-1 -3,-6 4,-2 4,0 7,-3l2 -1c8,1 7,-2 15,-3 -3,4 -7,3 -5,9zm-216 -20c-10,-2 -7,-2 -10,-4l-16 -8c-5,-1 -6,0 -5,-7 2,-1 3,-1 5,-1 9,-1 6,5 24,-2 8,-3 6,2 3,8 -3,4 -2,2 -1,7 2,5 1,1 0,7zm-140 -38c-3,-1 -3,0 -4,-4 2,-4 2,-3 7,-2l-3 6zm69 -28c8,3 5,6 6,15 0,4 0,9 -1,13 -1,5 -1,2 -6,1 -2,13 -9,2 -8,-6 1,-6 0,-2 0,-6 0,-5 1,-2 -1,-7 -4,-10 0,-6 3,-7 4,-2 2,-3 7,-3zm0 -4c-6,-1 -7,-6 -9,-16 2,-1 4,-2 6,-3 5,-3 1,0 4,-5 2,8 2,16 -1,24zm-191 -202c13,-12 5,-5 14,-8 6,-3 -2,-1 7,0 2,0 3,0 6,0 5,14 8,10 2,16 0,0 -1,0 -1,0 0,1 -1,1 -2,2 -4,5 2,7 -1,20 -2,5 -3,5 -3,11 -18,-2 -27,17 -34,8 -3,-3 -2,-1 -6,-3 3,-8 -1,1 4,-5 -4,1 -3,1 -6,0 3,-3 2,-1 4,-2 7,-4 2,-5 12,-6 -2,-1 -3,0 -8,0 1,-2 0,0 2,-2 0,0 0,0 0,-1 6,-6 0,-2 6,-6 -2,0 -4,-1 -5,-1 -5,-2 -3,-1 -5,-3 1,-5 1,-4 5,-6 -3,-3 -3,-3 -5,-8 7,1 17,3 20,-4l-6 -2zm189 -12l4 -3c3,1 1,1 5,1 2,5 4,6 2,10l-1 -3c-5,2 -8,-1 -10,-5zm29 -6c0,0 0,0 0,1 0,0 -1,1 -1,1 -2,3 -2,1 0,6 -5,1 -2,0 -5,3 -4,-1 1,1 -2,-2 -6,-5 -4,1 -6,-8 4,-2 0,0 2,-2 3,1 2,2 5,2l1 -1c-1,-1 -1,-2 -1,-2 0,0 -3,-2 1,-3 5,-1 4,2 6,5zm61 -22c-8,-5 -3,-6 -1,-12l9 -2c-10,6 0,8 -8,14zm-259 -11l3 -8c4,-3 2,-2 6,-3 -1,5 -2,7 -6,9 0,1 -2,1 -3,2zm27 4c5,0 13,-2 24,-1 1,4 0,2 -1,6 -3,8 1,2 -7,11 -2,2 -2,1 -2,5l0 3c-3,0 -7,1 -9,2 7,4 11,-3 18,5 5,6 3,12 9,15 10,7 7,9 11,19 0,0 0,1 0,1 4,7 2,0 2,8 0,3 -2,-1 0,1 1,1 5,0 9,0l4 1c1,0 3,3 4,4 -5,18 -7,7 -12,18 0,0 1,0 1,0l2 1c4,1 2,-1 5,1 -2,6 0,3 -4,5 -2,1 -6,2 -8,3 -4,1 -2,-1 -6,-1 -21,0 -16,4 -24,4 -5,0 -3,-2 -9,-1 -5,2 -2,2 -5,6 -11,-1 -6,-4 -15,5l-4 -2c0,0 -1,0 -1,0l8 -8c2,-2 2,-1 4,-4 11,-14 6,3 19,-8 -6,0 -3,1 -7,2 -2,-3 -2,-3 -5,-4 -5,-3 -1,1 -5,-4 -4,2 -3,3 -8,2l0 -3c4,-5 12,-2 11,-14 -3,-2 -2,0 -5,-1 3,-3 3,-4 5,-8 19,2 11,-5 14,-11 -3,-3 -6,-1 -8,-11l4 -5c-7,1 -14,7 -19,1 4,-9 3,-3 3,-14l-3 1c-2,-2 -1,0 -2,-4 0,1 0,1 0,1 -1,4 -1,3 -2,3 -1,-3 -1,-3 0,-7l3 -7c-2,1 -6,3 -7,0 0,0 0,-1 0,-1l6 -9c-2,-4 -3,1 -2,-6l0 -4 5 0c-1,-4 1,-9 3,-13 9,2 9,0 19,-1 -1,7 -2,7 -6,10 -5,3 -4,2 -7,8zm-10 16c0,0 0,0 0,0l0 0c0,0 0,1 0,0zm278 -28l-1 4c-1,-10 -2,-2 -2,-9 6,-3 7,-2 10,-3l3 -1c0,1 0,1 0,1 0,0 0,0 0,0 1,0 0,1 -3,5 -3,3 -1,2 -7,3zm10 -8l0 0 0 1c0,0 0,-1 0,-1 0,0 0,0 0,0zm531 589c4,2 5,16 -1,26 -2,3 -2,3 -6,5 0,-5 1,-13 3,-18 1,-4 5,-11 4,-13zm-1350 -82c6,0 8,-1 7,5 -4,0 -6,-1 -7,-5zm-25 -23c10,0 17,13 17,13 3,3 3,2 4,7 -8,-4 -6,0 -8,-1l-2 -1c0,0 0,-1 0,-1l-2 5c-4,-11 -10,-4 -10,-13 2,2 2,2 6,3 -1,-4 -3,-10 -5,-12zm-28 -43c4,3 10,14 12,19l9 12c0,1 3,2 3,8 -4,0 -5,-1 -9,-3 1,-8 1,-4 -2,-10 -3,-4 -1,-5 -5,-10 -6,-8 -3,-6 -8,-11 -3,-2 -1,-4 0,-5zm94 -239c-1,3 1,1 -2,3 -1,2 -2,1 -3,2 -1,-1 -1,-1 1,-4 -3,0 -2,0 -3,1 -2,3 0,0 0,2 -1,2 0,1 -2,3 -2,-9 4,-13 7,-19 0,5 -1,4 -1,7l3 5zm26 -13c2,-2 2,-2 4,-5 1,0 1,0 1,0l1 -1c0,-1 1,-1 1,-1 1,-1 0,1 2,-2 -4,-1 -3,-1 -6,2l-2 -5c0,0 0,0 0,0 -2,4 -4,4 -8,3 -11,-2 -3,0 -12,1 0,-12 10,-8 3,-14 2,-2 6,-4 8,-9 0,-1 1,-3 1,-4 4,-9 11,-27 21,-28 -1,5 -2,0 -3,5l-4 7c-2,4 -6,8 -6,14 1,-2 3,-6 7,-5 3,2 0,1 -1,4l-1 1c0,0 -1,2 -1,2l8 2c0,0 14,-5 5,5 -4,6 1,2 -2,8 4,-2 1,-3 7,-5 -1,8 -2,2 -6,8 -1,3 2,2 -3,4 -4,3 -1,4 -5,7 -6,5 -2,9 -9,6zm20 -8c2,-2 1,0 2,-2 2,-3 -1,3 1,-2 1,5 -1,5 -2,9 -2,6 1,6 -6,7l1 -6c-3,2 -2,2 -5,4 1,-8 5,-14 12,-18 -3,3 -3,2 -3,8zm-3 6l0 0c0,0 0,0 0,0zm-60 -36c4,0 7,1 9,3 2,2 4,5 4,8 -7,-1 -9,-3 -11,-8l-2 -3zm370 -275c0,0 0,0 0,0 5,5 -3,-2 0,0zm-20 15l-3 -2c2,-5 -2,2 2,-2l9 -11c1,1 6,5 7,4 1,-1 2,0 -2,-4 4,-1 1,0 3,-2 -1,0 -2,0 -3,0 -3,-1 -1,-1 -2,-2l6 0c1,2 1,2 3,4 1,0 1,1 2,1 0,0 0,0 0,1 0,0 0,0 0,0 0,0 2,-1 1,3l-1 2c-1,3 0,7 1,8 4,-2 2,-2 4,-3 5,-2 0,3 4,-1 4,-4 -5,-8 4,-11 1,5 -1,4 3,7 5,-4 -3,-6 8,-9l2 7 2 -6c6,0 2,0 7,3 4,-6 2,-2 6,-4 7,-2 -2,-4 9,-6 1,3 0,4 2,6 3,-2 3,-4 7,-5 -2,4 0,3 -4,5l5 3c-1,3 -1,2 -3,4 6,1 2,1 5,2 2,1 3,1 5,2 -2,5 -3,-1 -2,5 0,4 4,0 -7,10 0,1 0,1 0,1 -9,10 -2,-1 -14,9 -1,0 -3,3 -5,4 -9,7 3,-2 -8,2 -3,1 -3,0 -5,2 0,0 -1,0 -1,1 -1,1 0,0 -1,1 -7,5 -7,5 -15,2 -3,0 -4,0 -6,-1 -3,-1 -2,-2 -6,-3 -1,-1 -13,1 -15,2l3 -6c5,-1 2,-1 6,-3l5 -3c-2,-1 -3,1 -6,1 2,-4 0,-1 3,-4l-5 -1c0,0 0,0 0,0l-1 -2c-13,0 -10,2 -12,-3 4,-1 11,-2 16,-3 5,-1 2,1 5,-2l-6 -2 7 -2c-2,-1 -5,-4 -12,-2 -4,1 -3,2 -7,3zm49 -7l2 -4c-2,2 -2,-1 -2,4zm-48 1c0,1 1,0 1,0 0,1 1,0 1,0 2,0 2,2 1,0 0,-2 -3,-2 -3,0zm-317 15c1,-5 2,-6 5,-10 3,-4 3,-6 8,-8 -1,8 -7,16 -13,18zm135 -69c2,4 1,-2 3,5 -2,4 -9,7 -14,6l0 -2c-2,-5 -3,4 1,-8 1,-4 -1,0 0,-2 1,-3 0,-1 2,-4 1,0 6,0 7,1l1 4zm814 -8c-6,-3 -8,-4 -6,-14 7,0 8,2 14,4 -1,3 -2,6 -3,9l-5 1zm-267 -11c-7,5 -6,0 -7,-2 4,-3 2,-1 2,-4l4 -1c6,5 4,6 1,7zm341 -4c-3,-3 2,-2 -4,-4 -7,-2 -6,-1 -10,-7l0 0 0 0 1 -4c5,2 7,5 11,7 5,3 8,3 7,10 -2,-1 -3,0 -5,-2zm-13 -11c0,0 0,0 0,0 -1,0 -1,0 -1,0 0,0 0,0 0,0 1,0 1,0 1,0l0 0 0 0c0,0 0,0 0,0zm-652 -29l-4 -1c-8,-3 -10,-5 -7,-10 2,-1 2,-1 5,0 0,0 3,1 3,1l5 3c2,2 1,-2 1,3l-5 -2 3 4c0,0 0,1 -1,2zm701 -18c-5,5 -8,-5 -9,-5 3,-2 3,-2 6,-2 2,3 2,3 5,5 -1,2 0,1 -2,2zm-110 1c-2,-1 -2,1 -4,-2 2,-5 -1,-2 4,-3 -3,-3 -2,-1 -3,-6 6,-2 8,-2 14,-1 8,2 6,0 8,7l-4 3c5,2 3,-1 4,3 2,5 1,3 3,7 2,4 4,8 6,12 4,6 7,7 10,9l11 8c2,3 0,2 0,2 -1,1 0,2 1,4 -3,-2 -13,-4 -14,-3 0,0 -1,0 -1,0 -2,0 2,0 -2,0 -4,-6 -1,-3 -5,-4 -10,-2 -7,-3 -8,-4 0,-1 0,-1 0,-2 0,-4 0,-1 2,-3 -6,0 -8,-1 -9,-7 -2,5 -1,4 -5,0 -2,9 -13,-2 -12,-11l6 1c-1,-2 0,-4 0,-5 0,-2 0,-4 -2,-5zm44 40l0 -1c0,1 0,1 0,1zm-11 -113c3,-1 5,-2 9,-1 4,1 10,7 12,13 -7,7 -13,-2 -27,19 -1,2 2,5 -3,6 -1,0 0,1 -5,-1 1,7 3,3 -2,4 6,4 2,2 4,8l-1 1c0,0 -1,1 -1,1 -2,1 3,1 -4,1 5,2 7,5 4,11 -4,0 -2,-1 -4,-1l-10 -1c-3,0 -6,1 -5,-4 0,-2 3,-2 6,-3 -8,0 -8,3 -11,0l0 -3c4,-7 2,-4 7,-6 -7,-2 2,0 -5,-3l5 -2 -5 -2 5 -2c0,0 0,0 0,0 -1,0 -1,-1 -1,-1l-6 -2c-2,-2 -3,-3 -3,-6 0,1 1,1 2,2 5,0 -1,-3 10,-3 -2,-4 -2,-1 -4,-5l4 -1 -2 -5c4,-2 -2,0 2,1 5,0 4,-3 5,-4 2,0 1,1 3,1 0,0 0,-1 0,-1 0,0 0,0 0,0 0,-1 0,-1 0,-1 0,-1 -1,1 1,-2 7,0 5,3 10,2 2,-1 8,-3 10,-3 2,-7 0,-1 0,-7zm-27 48c-2,-2 -1,-2 -5,-3l5 3zm-558 -12c2,-6 2,-7 9,-7 -2,4 -1,-2 -2,4l4 1c-2,3 -1,2 -4,2 -4,1 -3,1 -7,0zm691 -41c-3,-1 -16,-9 -20,-11 -4,-3 -5,-4 -9,-6 -2,-2 -6,-4 -7,-7 0,-1 0,-1 -1,-1 6,1 16,7 22,11 5,4 10,9 15,14zm-408 -27c3,-1 6,-1 10,-2 13,-5 -1,4 9,6 3,1 2,-1 8,1 -8,5 -3,7 -12,11 0,-4 0,-5 -1,-7 -5,1 -4,3 -12,4 0,-4 2,-5 4,-9l-6 -4zm-5 -8c5,-1 9,-2 14,-1l-2 5 -6 2 -6 -6zm-31 17c-3,-1 -2,1 -3,-1 0,0 -1,0 -1,0 4,-1 11,-2 13,-4l-22 3 0 -5c13,-1 6,-6 19,-7 -4,-5 -1,-3 -2,-6 -3,2 -1,3 -6,5 -1,0 -1,0 -1,0l-1 -6c-5,2 2,5 -5,1 0,2 2,8 -4,10 -5,1 -2,1 -10,-4l1 -1c0,0 0,-1 0,-1l-2 -2c-12,-7 -6,-3 -5,-6 0,0 0,0 0,-1 0,0 0,-2 1,-4 -6,1 -1,1 -6,2 -1,-1 -2,-2 -2,-4l3 -7c4,1 2,0 5,3 0,0 -1,-4 8,-4l3 1c0,-1 0,0 1,0l-6 3c0,0 0,0 0,0 8,2 4,7 9,-3 5,2 8,4 6,10l8 4c-1,-4 -3,-4 -4,-10 -1,-2 -1,-3 -1,-5 0,-3 0,-2 1,-4l4 1c0,0 1,1 1,1 4,1 2,-1 6,2l0 8c3,-3 2,-3 3,-5 6,1 4,3 7,6 2,3 3,1 7,5 8,-1 -4,-3 5,-2 0,2 0,0 0,2 0,0 -1,1 -1,1l6 3 -4 1c-3,1 -7,1 -7,6l-3 10c0,12 -2,2 -4,8l-2 15c-1,3 -5,3 -5,2 0,0 -1,0 -1,1 -1,-5 0,-4 -5,-6l3 -4c-11,-1 -1,4 -11,-3 -2,-2 -4,-3 -5,-4 -2,-2 -1,0 -1,-2 0,-3 0,-1 1,-3 4,2 6,2 11,1l-2 -1zm-28 -24c-2,3 1,1 1,1 3,1 1,-3 -1,-1zm35 9c4,0 -1,-1 -2,0l2 0zm226 -24l-2 -4c6,0 5,0 7,5l-5 -1zm17 -17c8,-4 3,0 13,4 0,0 -2,1 -3,1l-1 2c-3,-1 -4,-2 -7,-2 0,0 0,0 0,0l6 8c-9,2 -13,0 -15,-7l8 -1c1,-3 1,-2 -1,-5zm-31 0c4,-2 1,-1 5,-3 2,5 2,3 3,4l4 0c-3,3 0,2 -1,7l-2 -2 0 0 -1 -1c-5,0 -10,2 -13,-2 3,0 5,1 7,2 -1,-1 -3,-3 -5,-4 -4,-1 -2,1 -5,-2l8 1zm10 6c2,1 0,0 -1,0 0,0 -1,0 -1,0 0,0 0,0 1,0 0,0 1,0 1,0zm-2 -3c-4,-2 1,0 -3,-2 -2,-1 0,0 -3,-1l6 3zm-208 5c-4,-3 -2,-3 -1,-4 1,1 4,5 10,5 3,0 0,-1 3,0l1 1c1,0 2,2 5,3 0,-3 -2,-5 0,-8 1,-2 0,0 1,-1 4,3 1,2 3,6 8,-1 0,-5 12,-2l12 3c7,3 1,6 1,6l-6 8c-12,0 -6,1 -12,3 -8,2 0,-4 -10,-3 -7,0 -4,1 -10,-1 -5,-3 -8,-2 -7,-6 -10,0 -9,-3 -10,-5l-2 -2c0,-1 0,-1 -1,-1 5,1 5,0 8,2 3,-5 -2,0 0,-3l3 -1zm169 -7c5,-1 3,2 5,-2 1,3 1,1 0,4 4,0 5,0 7,3 -3,2 -1,1 -5,0l3 4c-8,0 -3,-2 -5,3l-1 3c-7,-2 3,-2 -9,-2l-5 -9 3 -2c-3,-1 -4,-1 -8,0l4 6c-6,-4 -7,-1 -13,-4 1,-3 -2,-1 4,-4 3,-1 3,-1 7,-1 3,1 7,3 11,4l-5 2c5,0 7,-1 9,-3 0,-2 0,-1 -2,-2zm29 -5c-3,-2 -1,-3 -2,-4 3,-1 3,0 7,0 -1,1 -1,1 -2,2 -1,0 -2,0 -2,0 4,1 3,0 3,4l-7 0c0,0 0,-1 0,-1l3 -1z"/>
  </g>
  <g>
   <path class="fil5" d="M1165 2592c0,0 0,0 0,0l0 0zm-84 -1249c0,0 0,0 0,-1l0 1zm811 -380c0,0 0,0 0,0l0 0zm1079 1070c0,0 1,0 1,0l-1 0zm-826 807c0,0 1,0 1,0l-1 0zm-962 -385c-30,139 -45,266 -31,409 8,53 19,97 44,145 12,21 23,37 40,54 16,16 31,27 51,37 38,18 69,23 110,21 46,-4 82,-15 124,-33 107,-49 187,-116 271,-197 42,-40 79,-80 117,-124 151,-176 290,-404 380,-617 11,-24 20,-47 30,-71 6,-17 76,-186 28,-141 -37,37 -53,70 -79,117 -37,68 -74,134 -113,200 -127,210 -252,400 -420,580 -31,32 -62,61 -96,90 -48,39 -93,71 -148,99 -34,16 -63,26 -100,30 -29,3 -50,1 -77,-11 -32,-15 -50,-34 -68,-63 -25,-41 -36,-78 -45,-124 -1,-1 -2,-7 -2,-8 -21,-110 -20,-238 -10,-350 1,-16 5,-59 -6,-43zm-58 -997c-56,-152 -100,-312 -91,-475 1,-12 3,-25 5,-37 8,-49 21,-87 55,-124 14,-14 26,-23 44,-31 19,-9 35,-13 56,-15 53,-4 97,5 147,22 34,12 63,26 95,42 32,16 61,34 92,53 118,78 213,161 317,256 8,8 161,171 142,115 -31,-79 -126,-175 -183,-234 -78,-78 -147,-136 -239,-195 -68,-43 -128,-73 -204,-98 -50,-15 -91,-23 -143,-23 -11,0 -21,1 -32,3 -28,4 -49,10 -74,22 -24,13 -41,26 -60,46 -40,48 -54,93 -63,154 -7,66 -1,119 10,184 19,105 59,207 102,304 6,13 24,49 24,31zm715 -433c86,-94 172,-173 275,-247 9,-6 18,-12 27,-18 44,-28 83,-50 132,-67 37,-13 68,-20 107,-15 32,5 52,14 75,37 11,11 18,21 26,35 13,21 21,41 28,65 28,98 31,195 34,296 1,12 -10,202 17,157 33,-66 37,-176 41,-247 2,-82 -2,-148 -26,-226 -17,-52 -36,-90 -75,-128 -35,-32 -67,-45 -115,-51 -2,-1 -24,0 -28,0 -39,2 -68,10 -104,23 -53,22 -94,47 -141,81 -43,32 -79,64 -117,102 -56,55 -103,114 -149,178 0,0 -21,29 -7,25zm900 1121c128,-48 235,-99 344,-184 38,-33 67,-63 93,-108 21,-38 30,-70 28,-114 -4,-39 -15,-65 -37,-97 -25,-35 -52,-59 -87,-84 -96,-63 -192,-96 -302,-125 -6,-2 -13,-4 -19,-5 -317,-73 -613,-76 -937,-52 -235,23 -444,57 -671,123 -92,28 -176,58 -264,98 -106,49 -195,99 -280,181 -32,33 -55,62 -75,104 -18,39 -24,70 -21,113 4,31 11,53 26,80 16,29 33,48 56,70 58,51 114,73 184,102 46,17 94,28 142,40 168,38 408,48 285,20 -245,-42 -281,-56 -404,-107 -35,-15 -66,-31 -99,-51 -24,-16 -44,-30 -64,-50 -18,-18 -31,-33 -43,-55 -10,-19 -15,-34 -17,-56 -2,-29 4,-51 16,-78 17,-33 37,-57 63,-83 78,-74 163,-121 260,-167 294,-130 579,-186 899,-222 3,0 10,-1 13,-1 324,-27 621,-30 939,42 105,26 198,55 290,113 21,14 39,27 57,45 8,9 16,17 23,27 18,26 28,47 33,78 3,37 -5,64 -21,97 -22,41 -49,71 -83,102 -81,71 -161,118 -257,164 -12,5 -106,47 -70,40zm-704 610c105,95 208,172 338,231 51,20 93,32 148,34 24,1 43,-1 67,-7 22,-6 38,-14 58,-26 34,-24 54,-48 73,-85 19,-42 28,-78 33,-124 11,-117 -7,-219 -35,-333 -14,-56 -30,-108 -49,-163 -77,-219 -205,-453 -344,-638 -16,-21 -31,-41 -47,-61 -11,-14 -123,-159 -108,-95 14,51 34,81 62,127 40,66 79,131 117,198 117,215 220,418 292,653 12,44 22,85 30,129 10,61 15,115 11,178 -3,36 -8,67 -23,101 -12,26 -25,44 -48,61 -29,20 -55,26 -90,28 -47,0 -85,-9 -130,-23 -1,-1 -5,-2 -7,-3 -106,-37 -216,-101 -308,-166 -13,-9 -49,-34 -40,-16z"/>
  </g>
  <path class="fil2" d="M489 2307l25 61 -150 59 27 68 149 -59 24 61 -198 78 -75 -190 198 -78zm-211 32l-25 -107c-5,-23 -4,-42 5,-56 8,-14 23,-23 43,-28 21,-5 39,-2 54,7 14,10 25,28 31,54l8 35 77 -17 15 64 -208 48zm74 -85l-4 -16c-3,-12 -7,-20 -12,-25 -6,-4 -12,-5 -19,-3 -6,1 -11,5 -15,10 -3,6 -4,14 -1,26l4 19 47 -11zm-141 -336l213 -16 5 62 -117 9 123 70 4 62 -212 16 -5 -62 118 -9 -124 -70 -5 -62zm0 -49l8 -109c2,-24 9,-41 21,-52 12,-11 29,-16 50,-14 21,1 38,9 49,23 11,14 15,34 13,61l-2 36 78 6 -5 66 -212 -17zm96 -59l1 -16c1,-13 -1,-22 -5,-27 -4,-6 -9,-9 -16,-9 -7,-1 -13,1 -18,5 -5,4 -8,13 -8,25l-2 19 48 3zm22 -123c-34,-6 -59,-20 -74,-43 -16,-22 -21,-50 -15,-84 6,-35 21,-61 43,-76 22,-16 50,-20 84,-14 24,4 43,12 58,23 14,11 24,25 30,42 6,17 7,37 3,61 -5,23 -12,42 -22,57 -11,14 -25,24 -43,31 -18,7 -39,8 -64,3zm12 -64c21,3 37,2 48,-4 11,-6 17,-16 20,-30 2,-14 -1,-25 -8,-35 -8,-9 -23,-16 -47,-20 -20,-3 -35,-2 -45,4 -11,7 -17,17 -20,30 -2,14 1,25 8,34 8,10 23,17 44,21zm261 -335l-19 49 -43 -17 -50 127 43 17 -19 49 -89 -35 8 -21c-28,-24 -62,-44 -102,-60l-44 -17 65 -166 153 60 8 -21 89 35zm-121 47l-104 -41 -19 50 2 1c28,10 60,28 96,53l25 -63zm-108 -173l32 -57 65 37 36 -62 -65 -37 33 -58 185 107 -33 57 -75 -43 -36 62 75 43 -32 57 -185 -106zm207 -144c-28,-22 -43,-46 -46,-74 -3,-27 6,-54 27,-81 22,-28 46,-44 73,-47 27,-3 54,6 81,27 20,15 33,31 40,47 8,17 10,34 7,52 -3,18 -11,36 -26,55 -15,19 -30,32 -46,40 -16,7 -33,10 -52,7 -19,-2 -39,-11 -58,-26zm41 -52c16,13 31,20 43,19 13,0 23,-6 32,-17 9,-11 12,-23 9,-34 -2,-12 -13,-25 -32,-40 -15,-13 -29,-18 -42,-18 -12,1 -22,7 -31,18 -8,10 -11,21 -9,34 3,12 13,25 30,38zm104 -122l60 -62 33 31 -59 63 -34 -32zm-9 -154l66 -57 110 76 -60 -120 65 -56 140 161 -41 35 -106 -123 75 150 -37 32 -138 -95 107 122 -41 36 -140 -161zm434 -99l-64 37 8 36 -59 34 -36 -225 62 -36 176 145 -60 34 -27 -25zm-35 -33l-58 -55 18 78 40 -23zm24 -168l186 -74 20 49 -63 25 59 149 -61 24 -59 -149 -63 25 -19 -49zm208 -82l170 -48 13 44 -106 30 9 33 98 -28 12 41 -98 28 11 41 109 -31 13 46 -172 49 -59 -205zm215 -57l86 -11 49 125 17 -133 86 -11 27 212 -54 6 -20 -161 -21 167 -49 6 -61 -156 20 161 -53 7 -27 -212zm411 156l-74 -1 -12 34 -67 -1 86 -211 72 1 74 216 -69 -2 -10 -36zm-12 -46l-22 -77 -25 76 47 1zm108 -125l198 35 -10 52 -66 -12 -28 158 -65 -11 28 -158 -66 -12 9 -52zm427 109l-68 202 -59 -20 38 -111 -113 86 -59 -20 68 -202 59 20 -38 111 114 -86 58 20zm122 300l-59 -30 36 -70c-23,0 -42,-3 -59,-12 -19,-10 -32,-23 -39,-41 -6,-18 -4,-37 6,-57l36 -70 58 30 -30 58c-4,10 -6,18 -4,25 2,7 7,13 15,17 16,8 29,9 41,4l37 -74 59 30 -97 190zm171 124l-60 -43 10 -60c3,-14 4,-23 3,-28 -1,-4 -4,-8 -8,-12l-49 69 -54 -38 124 -174 53 38 -47 67c5,3 9,4 14,3 5,-2 15,-8 31,-18 12,-8 22,-13 29,-15 7,-2 17,0 27,4 11,5 26,14 46,28l-26 37 -3 -2c-9,-7 -17,-10 -24,-9 -7,0 -15,3 -23,9 -8,6 -15,9 -21,11 -6,1 -13,1 -20,-1 5,8 9,18 10,28 2,10 1,24 -2,42l-10 64zm293 -16l-147 154 -45 -43 81 -84 -138 30 -45 -43 147 -155 45 43 -82 86 140 -31 44 43zm175 260c29,58 22,101 -21,128 -44,29 -86,17 -126,-34l-19 12 -32 -50 19 -13c-30,-57 -24,-100 21,-128 43,-28 85,-17 125,34l14 -9 33 51 -14 9zm-110 70c8,7 17,11 27,12 9,0 19,-2 28,-8 8,-6 15,-13 18,-23 4,-9 5,-19 2,-29l-75 48zm-33 -50l75 -48c-8,-6 -17,-10 -27,-11 -10,0 -20,2 -29,8 -8,5 -14,13 -17,22 -4,9 -4,19 -2,29zm117 281l-30 -68 -37 5 -28 -62 228 -14 30 65 -162 161 -28 -63 27 -24zm37 -32l60 -52 -80 10 20 42zm14 299l-21 -71 46 -40c11,-9 17,-16 20,-20 2,-4 2,-9 1,-15l-81 23 -18 -63 205 -59 18 64 -79 22c2,6 5,9 9,11 5,2 17,4 36,6 14,1 24,3 31,7 7,3 14,10 19,20 6,10 12,27 18,50l-43 12 -1 -3c-3,-11 -7,-18 -13,-22 -6,-4 -13,-7 -24,-7 -10,-1 -18,-3 -23,-5 -6,-3 -11,-7 -16,-13 0,10 -3,19 -8,28 -6,9 -15,19 -28,31l-48 44zm202 -58l13 70 -82 45 92 13 12 66 -175 -40c-14,-3 -24,-7 -32,-10 -7,-3 -13,-8 -19,-15 -5,-8 -9,-19 -12,-33 -1,-8 -3,-21 -4,-40l44 -8c0,11 1,19 2,24 3,15 10,24 22,25l139 -97zm-174 426l-1 -66 160 -4 -1 -52 -65 2c-27,1 -47,0 -60,-3 -13,-2 -22,-9 -28,-19 -6,-10 -10,-27 -10,-51 -1,-7 0,-15 1,-25l43 -1 1 10c0,9 2,15 6,19 4,4 11,5 22,5l141 -4 4 183 -213 6zm210 30l-25 199 -52 -7 8 -66 -159 -21 8 -65 160 20 8 -66 52 6zm-30 223l-40 172 -44 -10 25 -107 -33 -8 -23 99 -43 -9 23 -100 -41 -9 -25 110 -47 -11 40 -175 208 48zm-51 197l-73 187 -49 -19 25 -63 -150 -59 24 -61 150 59 24 -63 49 19z"/>
  <path class="fil2" d="M916 3071l30 23c27,22 43,42 49,62 5,20 0,40 -16,60 -13,16 -29,24 -48,24 -18,-1 -39,-10 -62,-28l-94 -74 140 -179 151 118 -29 36 -95 -74 -26 32zm-56 72l28 22c18,13 31,14 41,1 8,-11 4,-23 -13,-36l-28 -23 -28 36zm279 193l-71 -37 -27 28 -64 -32 180 -164 68 35 -27 242 -66 -34 7 -38zm9 -51l15 -84 -59 61 44 23zm336 72l36 10c33,9 55,22 68,39 13,17 16,37 10,61 -5,15 -13,26 -25,35 -13,9 -28,12 -46,9 -18,-3 -29,-5 -32,-6l-116 -33 25 -88 -66 -19 -25 88 -67 -19 62 -218 67 19 -22 76 66 19 22 -77 67 20 -24 84zm-24 87l34 10c21,6 34,1 38,-14 4,-13 -5,-23 -26,-29l-34 -10 -12 43zm331 64l-80 -6 -14 36 -71 -5 102 -220 77 5 67 233 -73 -5 -8 -38zm-11 -51l-19 -83 -31 80 50 3zm459 59l-69 9 -22 -170 -55 7 9 69c4,29 5,50 4,63 -2,14 -7,25 -18,33 -10,7 -28,13 -52,16 -8,1 -17,1 -27,1l-6 -46 11 -1c9,-2 16,-4 19,-9 3,-5 4,-13 3,-24l-19 -149 193 -24 29 225zm-18 -231l72 -24 60 78 -1 -98 68 -23 -14 190c-2,15 -3,27 -5,35 -2,8 -7,15 -14,23 -7,7 -18,13 -33,18 -7,2 -21,6 -41,10l-15 -44c11,-3 20,-5 25,-7 15,-5 23,-14 22,-27l-124 -131zm507 35l-70 36 -52 -39c-12,-10 -20,-15 -25,-17 -5,-1 -10,-1 -15,2l41 80 -63 32 -103 -202 62 -32 40 78c5,-3 8,-8 9,-13 2,-5 1,-18 -1,-38 -2,-15 -2,-26 0,-34 2,-8 8,-16 17,-24 10,-8 26,-18 49,-29l22 42 -3 2c-11,5 -18,11 -21,18 -3,7 -4,15 -2,26 1,11 1,20 -1,26 -1,6 -5,13 -10,19 11,-2 21,-1 32,3 10,4 23,11 38,23l56 41zm141 -141l-65 46 12 37 -58 42 -62 -235 63 -44 201 135 -60 43 -31 -24zm-41 -31l-67 -53 27 81 40 -28z"/>
 </g>
</svg>
